<?xml version="1.0" encoding="UTF-8" standalone="no"?>
<svg
   xmlns:dc="http://purl.org/dc/elements/1.1/"
   xmlns:cc="http://creativecommons.org/ns#"
   xmlns:rdf="http://www.w3.org/1999/02/22-rdf-syntax-ns#"
   xmlns:svg="http://www.w3.org/2000/svg"
   xmlns="http://www.w3.org/2000/svg"
   xmlns:sodipodi="http://sodipodi.sourceforge.net/DTD/sodipodi-0.dtd"
   xmlns:inkscape="http://www.inkscape.org/namespaces/inkscape"
   version="1.0"
   width="980.000000pt"
   height="980.000000pt"
   viewBox="0 0 980.000000 980.000000"
   preserveAspectRatio="xMidYMid meet"
   id="svg46"
   sodipodi:docname="clear2.svg"
   inkscape:version="1.0.2 (e86c870879, 2021-01-15)">
  <metadata
     id="metadata52">
    <rdf:RDF>
      <cc:Work
         rdf:about="">
        <dc:format>image/svg+xml</dc:format>
        <dc:type
           rdf:resource="http://purl.org/dc/dcmitype/StillImage" />
        <dc:title></dc:title>
      </cc:Work>
    </rdf:RDF>
  </metadata>
  <defs
     id="defs50" />
  <sodipodi:namedview
     pagecolor="#ffffff"
     bordercolor="#666666"
     borderopacity="1"
     objecttolerance="10"
     gridtolerance="10"
     guidetolerance="10"
     inkscape:pageopacity="0"
     inkscape:pageshadow="2"
     inkscape:window-width="1920"
     inkscape:window-height="1017"
     id="namedview48"
     showgrid="false"
     inkscape:zoom="0.6505102"
     inkscape:cx="653.33333"
     inkscape:cy="653.33333"
     inkscape:window-x="-8"
     inkscape:window-y="-8"
     inkscape:window-maximized="1"
     inkscape:current-layer="svg46" />
  <g
     transform="translate(0.000000,980.000000) scale(0.100000,-0.100000)"
     fill="#000000"
     stroke="none"
     id="g44">
    <path
       d="M3883 9782 c-63 -23 -115 -61 -153 -114 -54 -74 -55 -83 -55 -483 l0 -370 26 -56 c55 -117 152 -179 279 -179 127 0 224 62 279 179 l26 56 3 329 c4 421 -2 465 -85 557 -78 86 -212 120 -320 81z"
       id="path32" />
    <path
       d="M1290 8711 c-47 -15 -85 -39 -126 -83 -61 -63 -77 -101 -82 -196 -7 -136 7 -158 310 -458 232 -230 258 -253 313 -274 112 -42 241 -14 325 70 84 84 112 213 70 325 -21 55 -44 81 -274 313 -290 293 -318 313 -440 311 -39 0 -82 -4 -96 -8z"
       id="path34" />
    <path
       d="M6445 8691 c-49 -25 -108 -78 -311 -283 -230 -232 -253 -258 -274 -313 -42 -112 -14 -241 70 -325 84 -84 213 -112 325 -70 55 21 81 44 313 274 303 300 317 322 310 458 -5 97 -25 143 -90 204 -64 62 -101 77 -198 82 -79 3 -89 1 -145 -27z"
       id="path36" />
    <path
       d="M3755 7954 c-218 -31 -355 -64 -520 -125 -454 -169 -845 -496 -1097 -919 -344 -576 -392 -1302 -127 -1913 21 -50 39 -94 39 -99 0 -4 -21 -8 -46 -8 -26 0 -94 -7 -153 -16 -487 -72 -906 -285 -1246 -635 -173 -178 -284 -336 -390 -554 -244 -500 -280 -1061 -105 -1597 170 -517 527 -946 1010 -1213 503 -277 1122 -337 1669 -160 60 19 110 35 113 35 3 0 41 -30 84 -66 183 -153 491 -338 735 -442 1017 -435 2202 -270 3067 426 l106 84 113 -36 c547 -175 1132 -123 1643 145 395 208 712 530 918 935 155 307 225 601 225 954 1 189 -8 282 -39 440 -89 441 -331 861 -668 1161 -422 376 -955 568 -1511 545 -88 -4 -173 -9 -190 -12 -28 -5 -35 1 -115 102 -187 237 -463 484 -740 661 -91 58 -271 157 -345 189 l-61 27 -12 136 c-43 500 -247 948 -597 1310 -323 334 -705 538 -1175 627 -82 15 -510 28 -585 18z m526 -633 c519 -111 923 -453 1119 -947 33 -82 80 -252 80 -289 0 -22 0 -22 -72 -8 -241 45 -588 60 -818 34 -380 -44 -713 -142 -1040 -306 -307 -154 -524 -310 -777 -559 l-143 -139 -36 79 c-48 105 -90 232 -116 351 -29 131 -31 410 -5 553 62 336 242 655 494 875 231 203 518 334 818 374 114 16 385 6 496 -18z m982 -1840 c530 -94 957 -309 1326 -666 181 -176 364 -414 452 -586 l28 -57 98 34 c202 68 413 94 612 76 384 -36 714 -193 978 -464 191 -196 343 -483 397 -748 82 -403 5 -812 -217 -1148 -232 -352 -566 -578 -987 -669 -67 -14 -129 -18 -295 -18 -184 0 -223 3 -315 23 -173 39 -352 112 -498 204 l-63 40 -116 -122 c-321 -336 -729 -580 -1156 -689 -567 -146 -1140 -88 -1662 168 -270 133 -490 294 -707 520 l-118 122 -83 -51 c-155 -93 -317 -157 -497 -196 -68 -15 -127 -19 -300 -19 -236 1 -316 12 -490 73 -358 124 -670 385 -846 708 -242 444 -255 969 -34 1417 70 142 152 258 265 376 272 283 585 433 982 472 163 16 305 2 511 -53 87 -22 166 -43 177 -45 17 -4 31 13 83 101 116 197 311 437 483 593 380 345 849 560 1359 622 132 17 499 6 633 -18z"
       id="path38" />
    <path
       d="M241 6120 c-89 -19 -173 -89 -215 -179 -32 -70 -29 -189 6 -257 28 -52 86 -112 136 -138 60 -31 153 -38 488 -34 l329 3 56 26 c117 55 179 152 179 279 0 127 -62 224 -179 279 l-56 26 -350 2 c-192 1 -370 -3 -394 -7z"
       id="path40" />
    <path
       d="M6983 6120 c-97 -20 -196 -106 -227 -197 -20 -60 -20 -146 0 -207 22 -64 100 -147 166 -177 53 -24 54 -24 428 -24 l375 0 57 28 c70 34 140 110 162 174 50 147 -19 310 -162 380 l-57 28 -350 2 c-192 1 -369 -2 -392 -7z"
       id="path42" />
  </g>
  <path
     style="fill:#ffffff;stroke-width:1.53725"
     d="m 610.2902,1303.3989 c -73.67923,-8.51 -142.18812,-36.2771 -202.43895,-82.0499 -8.90337,-6.7639 -17.12033,-12.9676 -18.2599,-13.7861 -1.35944,-0.9763 -4.34128,-0.8414 -8.67087,0.3921 -40.97393,11.6736 -65.33493,15.6999 -94.99107,15.6999 -128.04852,0 -240.397383,-85.8779 -274.332059,-209.6957 C -1.3324544,966.78213 -1.9404699,913.71131 9.9375617,869.084 25.013297,812.44249 53.546582,765.9728 96.847059,727.54201 141.01772,688.3389 193.60159,664.67469 253.64706,656.97763 c 10.56863,-1.35477 19.49239,-2.71742 19.83059,-3.02813 0.33819,-0.3107 -2.62233,-8.89307 -6.57895,-19.07193 -25.07902,-64.5188 -27.19133,-129.35239 -6.29293,-193.14954 23.79864,-72.65084 76.13207,-132.37323 145.99815,-166.61165 25.24849,-12.37323 43.16032,-18.53734 69.16849,-23.8034 26.18422,-5.30171 36.91677,-5.90093 72.25896,-4.03435 34.18143,1.80526 52.35651,5.45653 81.47451,16.36775 101.37337,37.98705 173.14114,131.02707 183.791,238.26735 2.41873,24.35574 2.12547,23.56807 10.03728,26.95946 3.82549,1.63979 14.00732,6.86303 22.62631,11.60719 50.47534,27.78314 94.34324,65.53508 132.92188,114.39021 0.33382,0.42274 14.90303,0.54251 32.37605,0.26616 35.8387,-0.56683 53.9299,1.40929 82.9189,9.05743 92.4213,24.38335 168.1647,96.52832 197.6016,188.21366 10.1899,31.73795 12.5118,47.86179 12.3969,86.08628 -0.1185,39.43526 -2.767,57.82884 -12.6346,87.74768 -25.3696,76.9214 -81.6186,139.5298 -154.9481,172.4663 -34.4261,15.4627 -67.3705,23.1228 -105.2546,24.4732 -35.51195,1.2658 -64.20426,-2.6149 -98.24963,-13.2887 l -14.12776,-4.4293 -16.36683,12.7418 c -61.44692,47.8371 -129.07708,75.8349 -204.49301,84.6568 -20.98783,2.4551 -68.67923,2.7467 -87.81107,0.537 z m 84.08596,-80.5335 c 72.90207,-9.3501 137.41603,-42.0016 192.06475,-97.2069 9.41781,-9.5138 17.47535,-17.2977 17.90564,-17.2977 0.43029,0 5.35637,2.7788 10.94681,6.1751 12.49602,7.5916 23.86536,12.7718 40.76322,18.5731 22.2984,7.6553 32.56908,9.0716 65.76882,9.0694 27.0925,0 32.1417,-0.4178 46.0909,-3.7973 70.9778,-17.1959 128.1358,-70.7861 148.5921,-139.317 7.1035,-23.79742 7.9128,-30.05858 7.8287,-60.56998 -0.093,-33.65091 -2.3311,-46.39844 -12.8662,-73.27149 -21.3501,-54.4601 -64.5364,-97.3878 -118.3532,-117.6444 -20.8735,-7.85672 -39.5223,-11.40042 -64.8356,-12.32012 -27.4548,-0.99751 -45.5369,1.30523 -69.40715,8.83898 -7.8275,2.47046 -14.67814,4.50396 -15.22365,4.5189 -0.54549,0.0154 -2.8743,-3.60462 -5.17509,-8.04344 -20.83934,-40.20435 -67.8891,-89.98938 -111.43307,-117.91133 -40.36003,-25.88027 -94.67899,-44.8836 -140.65883,-49.20906 -27.70448,-2.60625 -62.06755,-2.00497 -83.01176,1.45253 -93.14649,15.3768 -172.17776,67.71674 -225.19908,149.14237 -5.78079,8.87765 -11.93061,17.95377 -13.66627,20.16915 l -3.15574,4.02798 -24.26004,-6.07763 c -30.72717,-7.69776 -56.08808,-9.26411 -82.67573,-5.1063 -44.98537,7.03489 -80.62573,25.21084 -113.03111,57.64386 -29.77308,29.79847 -47.544545,62.40634 -56.422628,103.52674 -2.112933,9.78643 -2.688734,19.27286 -2.58383,42.56914 0.127577,28.33175 0.394624,30.96245 4.867111,47.94669 18.498787,70.24901 67.647837,122.69741 136.425357,145.58321 19.75754,6.5744 29.96703,7.8272 63.79608,7.8281 32.42505,9e-4 42.35331,-1.5092 66.10196,-10.054 11.07692,-3.9855 31.45732,-13.7982 43.31549,-20.8554 l 5.65276,-3.3642 15.86881,16.088 c 20.12923,20.4073 37.50885,34.8428 58.91196,48.9322 39.45921,25.9757 89.52815,44.45 136.96427,50.5369 17.58531,2.2565 60.41039,1.9485 80.09424,-0.5761 z M 368.91607,609.72392 c 21.64252,-21.33799 38.43111,-35.46962 57.34348,-48.26827 61.35043,-41.5179 132.40998,-65.80879 205.55221,-70.26565 18.63768,-1.13566 56.0762,1.08857 81.08892,4.8175 9.51108,1.41792 17.74966,2.12124 18.30796,1.56294 0.5583,-0.5583 -0.55503,-7.41887 -2.47408,-15.24571 -17.414,-71.02305 -69.13837,-125.88594 -139.19731,-147.64352 -19.29402,-5.99198 -33.33406,-7.76066 -61.49019,-7.74616 -18.87817,0.01 -29.29793,0.73013 -37.53228,2.59498 -90.25918,20.44116 -155.7614,93.1757 -163.07266,181.07806 -2.44259,29.36694 1.1496,60.8037 9.72527,85.10971 5.21891,14.79196 12.21697,29.94495 13.82939,29.94495 0.96416,0 9.02784,-7.17247 17.91929,-15.93883 z"
     id="path54"
     transform="scale(0.75000002)" />
  <path
     style="fill:#ffffff;stroke-width:1.53725"
     d="m 924.65882,567.45099 c -32.41245,-14.77535 -33.53495,-55.92912 -1.985,-72.77562 6.42176,-3.42898 7.90836,-3.53516 56.03574,-4.00231 l 49.43894,-0.47989 7.6366,3.86973 c 31.313,15.8675 33.1076,53.43457 3.4043,71.26259 l -8.324,4.99608 -50.02877,-0.0338 c -45.09649,-0.0304 -50.63501,-0.31011 -56.17781,-2.83682 z"
     id="path56"
     transform="scale(0.75000002)" />
  <path
     style="fill:#ffffff;stroke-width:1.53725"
     d="m 803.1302,277.7658 c -19.92001,-9.5248 -28.76802,-33.50437 -19.58141,-53.06885 1.47315,-3.13734 17.35743,-20.43275 35.81173,-38.99319 41.2816,-41.51903 45.8217,-44.15707 67.94421,-39.47928 6.77169,1.43188 9.61171,3.18275 16.83124,10.37647 10.0713,10.0353 12.71422,17.19615 11.77731,31.90999 -0.46483,7.3 -1.63931,11.00366 -5.12632,16.16558 -5.87036,8.69006 -62.99124,65.84825 -71.30047,71.34704 -9.34228,6.18243 -25.45527,6.95459 -36.35629,1.74224 z"
     id="path58"
     transform="scale(0.75000002)" />
  <path
     style="fill:#ffffff;stroke-width:1.53725"
     d="m 515.92654,159.14846 c -7.72354,-2.7528 -17.10736,-11.89513 -21.97334,-21.40783 l -3.85175,-7.52996 0.58338,-49.348473 c 0.6424,-54.341133 0.74079,-54.95354 10.64109,-66.229354 14.86045,-16.9251203 41.39881,-17.4563758 57.47432,-1.150544 10.99803,11.155619 11.52133,14.389786 11.52133,71.206311 v 48.77372 l -6.53333,9.70417 c -8.54557,12.69299 -18.51717,18.27752 -32.4579,18.17779 -5.18776,-0.037 -12.11947,-1.02524 -15.4038,-2.19583 z"
     id="path60"
     transform="scale(0.75000002)" />
  <path
     style="fill:#ffffff;stroke-width:1.53725"
     d="m 226.08083,278.25578 c -8.12728,-3.80225 -66.31698,-60.81486 -75.11201,-73.59262 -5.40143,-7.84741 -5.6909,-8.88916 -5.55745,-20.0003 0.16044,-13.3591 3.2116,-20.92095 11.63824,-28.8437 8.77491,-8.2502 14.64118,-10.48429 27.61829,-10.51806 11.05828,-0.0288 12.20326,0.2977 20.08692,5.72738 4.59811,3.16684 22.55465,20.11507 39.90343,37.66274 35.733,36.14267 37.67157,39.14316 36.30325,56.18959 -0.89586,11.16052 -3.66831,17.29999 -11.22451,24.85618 -7.85528,7.85529 -13.97797,10.46631 -26.08209,11.12272 -8.53404,0.46281 -12.17066,-0.076 -17.57407,-2.60393 z"
     id="path62"
     transform="scale(0.75000002)" />
  <path
     style="fill:#ffffff;stroke-width:1.53725"
     d="M 44.574019,570.31634 C 26.298385,569.11416 22.204977,567.49915 12.755119,557.76251 4.5722958,549.33136 1.5333042,542.01362 1.5522722,530.78663 c 0.025829,-15.28785 8.6138088,-28.80761 23.4488698,-36.91475 4.412304,-2.41125 10.653639,-2.77494 55.153415,-3.21378 l 50.178083,-0.49484 7.53069,3.81609 c 9.50845,4.81829 19.74656,15.82563 21.88591,23.53029 5.30377,19.10096 -0.57223,35.49952 -16.58274,46.2786 l -9.70417,6.53333 H 99.139246 c -18.877696,0 -35.244367,0.23782 -36.370381,0.52848 -1.126013,0.29067 -9.313694,0.0505 -18.194846,-0.53371 z"
     id="path64"
     transform="scale(0.75000002)" />
</svg>
