<?xml version="1.0" encoding="UTF-8" standalone="no"?>
<svg
   xmlns:dc="http://purl.org/dc/elements/1.1/"
   xmlns:cc="http://creativecommons.org/ns#"
   xmlns:rdf="http://www.w3.org/1999/02/22-rdf-syntax-ns#"
   xmlns:svg="http://www.w3.org/2000/svg"
   xmlns="http://www.w3.org/2000/svg"
   xmlns:sodipodi="http://sodipodi.sourceforge.net/DTD/sodipodi-0.dtd"
   xmlns:inkscape="http://www.inkscape.org/namespaces/inkscape"
   version="1.0"
   width="512.000000pt"
   height="512.000000pt"
   viewBox="0 0 512.000000 512.000000"
   preserveAspectRatio="xMidYMid meet"
   id="svg82"
   sodipodi:docname="clouds2.svg"
   inkscape:version="1.0.2 (e86c870879, 2021-01-15)">
  <metadata
     id="metadata88">
    <rdf:RDF>
      <cc:Work
         rdf:about="">
        <dc:format>image/svg+xml</dc:format>
        <dc:type
           rdf:resource="http://purl.org/dc/dcmitype/StillImage" />
        <dc:title></dc:title>
      </cc:Work>
    </rdf:RDF>
  </metadata>
  <defs
     id="defs86" />
  <sodipodi:namedview
     pagecolor="#ffffff"
     bordercolor="#666666"
     borderopacity="1"
     objecttolerance="10"
     gridtolerance="10"
     guidetolerance="10"
     inkscape:pageopacity="0"
     inkscape:pageshadow="2"
     inkscape:window-width="1920"
     inkscape:window-height="1017"
     id="namedview84"
     showgrid="false"
     inkscape:zoom="1.2451172"
     inkscape:cx="341.33333"
     inkscape:cy="341.33333"
     inkscape:window-x="-8"
     inkscape:window-y="-8"
     inkscape:window-maximized="1"
     inkscape:current-layer="svg82" />
  <g
     transform="translate(0.000000,512.000000) scale(0.100000,-0.100000)"
     fill="#000000"
     stroke="none"
     id="g80">
    <path
       d="M1894 4520 c-426 -44 -800 -304 -984 -684 -49 -101 -92 -231 -105 -317 -7 -45 -7 -46 -63 -64 -143 -44 -303 -147 -417 -266 -127 -133 -202 -267 -253 -449 -24 -85 -27 -113 -27 -255 0 -136 4 -173 23 -245 107 -394 405 -680 792 -760 l84 -17 51 -100 c92 -184 227 -330 395 -429 397 -234 913 -179 1241 133 l56 53 64 -38 c153 -93 327 -137 509 -129 133 6 217 24 327 70 220 93 397 269 488 485 l32 77 89 7 c344 27 664 257 803 576 62 141 75 209 75 392 0 151 -3 173 -28 255 -29 97 -85 215 -137 292 -53 80 -208 224 -296 276 -44 26 -125 64 -179 83 l-99 35 -23 56 c-52 127 -157 264 -277 359 -267 214 -621 278 -938 170 l-101 -35 -84 90 c-257 273 -645 418 -1018 379z m296 -405 c251 -54 422 -183 579 -435 46 -74 90 -141 96 -149 11 -11 36 2 149 72 76 47 163 96 194 107 216 81 455 27 622 -140 91 -90 129 -158 168 -303 16 -59 31 -109 33 -111 2 -2 59 -13 126 -25 190 -32 315 -100 409 -222 243 -316 108 -765 -272 -900 -101 -36 -306 -34 -490 6 -20 4 -22 -3 -39 -123 -30 -216 -61 -290 -164 -393 -149 -149 -360 -196 -555 -125 -101 36 -159 81 -290 226 -96 107 -121 129 -131 118 -7 -7 -50 -71 -95 -143 -98 -152 -123 -184 -198 -248 -122 -103 -278 -154 -447 -144 -175 10 -294 65 -421 192 -100 100 -139 176 -184 355 l-31 125 -119 -4 c-219 -6 -373 51 -511 189 -298 298 -232 780 136 995 65 39 149 64 285 86 69 11 125 21 126 22 0 1 6 74 12 162 7 109 17 182 32 230 130 419 556 671 980 580z"
       id="path78" />
  </g>
  <path
     style="fill:#ffffff;stroke-width:0.803137"
     d="m 239.86117,523.16618 c -17.97041,-3.24676 -31.17611,-10.76198 -45.94162,-26.14484 -12.4356,-12.95555 -16.86968,-21.86158 -22.93204,-46.05977 -1.32798,-5.30071 -2.77054,-10.99294 -3.20569,-12.64941 l -0.79118,-3.01177 h -15.52502 c -27.2866,0 -42.43081,-4.21357 -58.42346,-16.25517 -16.088552,-12.1138 -27.560622,-28.97017 -32.5999,-47.90033 -1.771828,-6.6559 -2.056499,-9.3929 -2.056499,-19.77234 0,-10.40537 0.282658,-13.10932 2.074209,-19.84216 4.109829,-15.44518 11.820156,-28.60343 23.272704,-39.71659 15.236487,-14.78498 27.110296,-20.04124 56.812806,-25.14974 8.16739,-1.40469 14.9463,-2.65048 15.06424,-2.76843 0.11794,-0.11794 0.75604,-7.40906 1.41797,-16.20249 2.22537,-29.56226 4.18857,-38.29206 12.13412,-53.95688 15.9637,-31.47276 46.00377,-53.81662 80.90647,-60.17837 10.97872,-2.00111 29.08321,-1.77724 39.86427,0.49293 24.10355,5.0755 42.13373,14.78171 57.9516,31.19716 8.50796,8.82939 14.02445,16.19952 24.63889,32.91799 4.49283,7.07652 8.70227,13.30916 9.35432,13.85031 1.76221,1.4625 4.0155,0.43274 19.74254,-9.02243 24.10064,-14.48943 31.39307,-17.49201 46.12912,-18.9932 7.35434,-0.7492 18.53348,-0.0408 24.84363,1.57422 7.26563,1.8596 18.14901,6.60472 24.18104,10.54284 7.73987,5.05313 20.47707,17.6033 25.11379,24.74504 4.12297,6.35043 7.11061,13.91908 11.64889,29.51029 l 3.44966,11.85127 14.88149,2.97596 c 24.90946,4.98132 37.71267,10.69568 49.33538,22.01948 6.12159,5.96416 13.51315,16.46138 16.75864,23.80001 12.78829,28.9166 6.52976,62.10185 -15.95195,84.58356 -9.47774,9.47774 -22.58426,17.11137 -34.67952,20.19838 -8.56536,2.1861 -36.50398,1.95074 -50.32791,-0.42397 -5.6416,-0.96912 -10.59829,-1.76204 -11.01488,-1.76204 -1.50652,0 -2.31732,3.08608 -4.42383,16.83825 -3.93472,25.6873 -7.70194,35.98724 -17.06544,46.6584 -15.4408,17.59719 -32.42557,25.80836 -53.61487,25.91974 -11.53207,0.0606 -20.43933,-1.86614 -30.42042,-6.58035 -10.8807,-5.1391 -13.20172,-7.18239 -40.07198,-35.27703 -4.32855,-4.5258 -8.50328,-8.20529 -9.30967,-8.20529 -1.02111,0 -5.31235,5.85017 -14.23086,19.40067 -12.91094,19.61649 -19.71687,27.99244 -27.80066,34.21384 -15.91239,12.24641 -32.86086,17.93887 -52.97492,17.79263 -5.45219,-0.0397 -12.74824,-0.5843 -16.21346,-1.21037 z"
     id="path90"
     transform="scale(0.74999998)" />
  <path
     style="fill:#ffffff;stroke-width:0.803137"
     d="m 235.72078,575.42909 c -30.36155,-4.8916 -57.68315,-18.79276 -77.5178,-39.44088 -11.58489,-12.06002 -18.44515,-21.9813 -26.90988,-38.91688 -2.51959,-5.04099 -4.68433,-9.27992 -4.81055,-9.41983 -0.12622,-0.13991 -4.8736,-1.28767 -10.54974,-2.55057 C 101.21201,481.82565 94.284908,479.39757 81.518431,473.038 67.496524,466.05305 57.399492,458.89264 46.990503,448.55216 29.820535,431.4952 17.495013,410.72771 10.432823,386.95548 7.0029881,375.41022 6.1846935,366.64786 6.6415765,346.35851 6.9586683,332.27705 7.3557396,327.63735 8.6868754,322.45961 13.359519,304.28435 21.117073,286.82038 30.092247,274.27137 c 16.494596,-23.0626 40.947195,-41.81522 66.284224,-50.83316 9.547339,-3.39809 9.452639,-3.35246 10.056889,-4.84619 0.29888,-0.73886 1.24773,-4.7768 2.10854,-8.9732 3.31804,-16.17514 13.11374,-40.20825 21.96635,-53.89299 16.92709,-26.1666 42.10847,-48.22946 69.26343,-60.685671 45.71949,-20.97192 96.32026,-20.37664 141.16008,1.660643 18.87359,9.275738 31.86523,18.869048 48.18824,35.583228 l 10.44078,10.691 10.77671,-3.63475 c 18.63629,-6.28561 24.29079,-7.19546 44.63976,-7.1828 16.52294,0.0103 18.29416,0.15736 27.30667,2.2676 25.49206,5.96884 47.36631,17.87321 65.11809,35.43845 12.39613,12.26587 20.18369,23.46942 27.2427,39.19264 l 3.21254,7.15562 11.24393,4.19434 c 14.4807,5.40176 25.48969,11.10756 34.5349,17.89897 10.30895,7.74023 25.67179,23.33086 31.14403,31.60579 9.54153,14.42835 18.94655,37.83978 20.61787,51.32295 1.07322,8.65814 1.082,26.7643 0.0185,38.17008 -2.37592,25.48102 -15.6784,52.23228 -36.1378,72.67304 -22.19936,22.17914 -50.0474,35.19478 -81.13886,37.92276 l -10.88292,0.95487 -3.04048,7.27094 c -14.11947,33.76502 -40.63786,59.04981 -73.97955,70.53813 -14.37923,4.95456 -20.28813,5.7966 -40.55843,5.77975 -16.76439,-0.014 -18.72353,-0.17009 -27.10376,-2.16022 -11.72621,-2.78475 -23.28866,-7.43877 -34.54563,-13.90503 -4.97414,-2.85727 -9.31108,-5.18918 -9.63765,-5.18205 -0.32656,0.007 -4.20786,3.29259 -8.62512,7.30101 -18.78081,17.04261 -40.76287,28.282 -65.85725,33.67271 -10.61022,2.27925 -37.25761,2.92031 -48.18824,1.15926 z m 36.63833,-51.35615 c 13.79024,-2.4151 26.48541,-8.15026 37.43665,-16.91232 10.89647,-8.71827 13.00957,-11.44926 35.87153,-46.36062 2.53108,-3.8651 4.95386,-7.02745 5.38393,-7.02745 0.97447,0 7.08719,6.11328 19.96019,19.96203 15.34113,16.50397 22.85255,21.94918 36.62434,26.5499 19.67395,6.57241 39.73155,4.6173 57.95716,-5.64938 4.48655,-2.52732 8.74064,-6.00211 15.12117,-12.35118 14.10318,-14.03363 17.02049,-21.18931 22.05913,-54.10735 2.00223,-13.08077 2.4558,-14.11356 5.88751,-13.406 12.04599,2.48367 19.82914,3.17335 36.26791,3.21373 14.40879,0.0354 18.60285,-0.21433 22.73,-1.35344 21.78994,-6.01414 39.80964,-20.68509 49.57114,-40.35892 5.59425,-11.27494 7.82999,-20.98356 7.86087,-34.13547 0.031,-13.21153 -1.77051,-21.54135 -7.08537,-32.76114 -7.28613,-15.38116 -18.41661,-27.29283 -32.16696,-34.42459 -10.04369,-5.20926 -17.56894,-7.56355 -34.13687,-10.67978 -7.22758,-1.35942 -13.39236,-2.73746 -13.6995,-3.06229 -0.30715,-0.32485 -2.22895,-6.37322 -4.27066,-13.44083 -4.38382,-15.17507 -8.53708,-24.34127 -14.65753,-32.34906 -11.49333,-15.03748 -27.58682,-25.73695 -45.62434,-30.33252 -13.74031,-3.50074 -32.7672,-2.60913 -44.70093,2.09471 -6.35385,2.50445 -11.51907,5.2916 -26.09931,14.0832 -16.34168,9.85372 -19.43739,11.42641 -20.20252,10.26336 -0.30518,-0.46392 -4.15223,-6.41399 -8.54897,-13.22237 -15.59647,-24.15122 -25.35785,-35.7769 -38.017,-45.27774 -28.31542,-21.25107 -68.4262,-27.48103 -102.97088,-15.99331 -32.09678,10.67368 -60.18489,38.78866 -70.99006,71.05799 -2.43656,7.2767 -4.09771,18.72431 -5.68823,39.19962 -0.66592,8.57265 -1.32005,15.69591 -1.45362,15.82947 -0.13357,0.13357 -6.55206,1.35309 -14.26332,2.71004 -25.94258,4.56512 -36.22361,8.26605 -48.644984,17.51109 -24.455697,18.20199 -37.419524,47.32423 -34.159242,76.73612 3.875823,34.96485 29.212286,64.3764 63.161816,73.3207 7.25736,1.91201 9.83037,2.15328 26.69847,2.50343 l 18.6671,0.38749 0.74975,2.9185 c 9.89886,38.5326 12.24585,43.7829 26.205,58.62158 14.16295,15.05529 30.27885,23.89723 48.40242,26.55585 7.56547,1.10981 23.56959,0.94696 30.76421,-0.31305 z"
     id="path92"
     transform="scale(0.74999998)" />
</svg>
