<?xml version="1.0" encoding="UTF-8" standalone="no"?>
<svg
   xmlns:dc="http://purl.org/dc/elements/1.1/"
   xmlns:cc="http://creativecommons.org/ns#"
   xmlns:rdf="http://www.w3.org/1999/02/22-rdf-syntax-ns#"
   xmlns:svg="http://www.w3.org/2000/svg"
   xmlns="http://www.w3.org/2000/svg"
   xmlns:sodipodi="http://sodipodi.sourceforge.net/DTD/sodipodi-0.dtd"
   xmlns:inkscape="http://www.inkscape.org/namespaces/inkscape"
   version="1.0"
   width="512.000000pt"
   height="512.000000pt"
   viewBox="0 0 512.000000 512.000000"
   preserveAspectRatio="xMidYMid meet"
   id="svg130"
   sodipodi:docname="drizzle2.svg"
   inkscape:version="1.0.2 (e86c870879, 2021-01-15)">
  <metadata
     id="metadata136">
    <rdf:RDF>
      <cc:Work
         rdf:about="">
        <dc:format>image/svg+xml</dc:format>
        <dc:type
           rdf:resource="http://purl.org/dc/dcmitype/StillImage" />
        <dc:title></dc:title>
      </cc:Work>
    </rdf:RDF>
  </metadata>
  <defs
     id="defs134" />
  <sodipodi:namedview
     pagecolor="#ffffff"
     bordercolor="#666666"
     borderopacity="1"
     objecttolerance="10"
     gridtolerance="10"
     guidetolerance="10"
     inkscape:pageopacity="0"
     inkscape:pageshadow="2"
     inkscape:window-width="1920"
     inkscape:window-height="1017"
     id="namedview132"
     showgrid="false"
     inkscape:zoom="1.2451172"
     inkscape:cx="341.33333"
     inkscape:cy="341.33333"
     inkscape:window-x="-8"
     inkscape:window-y="-8"
     inkscape:window-maximized="1"
     inkscape:current-layer="svg130" />
  <g
     transform="translate(0.000000,512.000000) scale(0.100000,-0.100000)"
     fill="#000000"
     stroke="none"
     id="g128">
    <path
       d="M1751 4710 c-529 -67 -983 -419 -1172 -908 -52 -135 -79 -256 -95 -425 l-6 -68 -62 -41 c-33 -23 -93 -73 -132 -112 -293 -293 -365 -730 -183 -1100 114 -230 313 -403 560 -486 151 -51 103 -50 1902 -50 1655 0 1680 0 1780 21 193 39 354 125 493 263 370 371 378 954 18 1336 -38 40 -96 92 -130 116 -70 50 -199 116 -262 135 -42 12 -46 17 -92 108 -60 119 -100 175 -191 269 -249 254 -616 364 -964 287 -69 -15 -70 -15 -85 7 -103 153 -264 317 -406 411 -162 108 -326 177 -517 218 -108 23 -345 32 -456 19z m314 -320 c376 -54 689 -278 857 -615 20 -39 41 -88 48 -110 7 -22 16 -44 20 -48 4 -5 32 7 61 27 219 144 521 151 749 19 83 -49 214 -180 263 -263 41 -71 87 -203 87 -251 0 -27 3 -29 38 -29 69 0 175 -30 261 -72 210 -103 351 -332 351 -568 0 -236 -140 -463 -350 -568 -152 -76 -31 -72 -1890 -72 -1858 0 -1735 -4 -1889 72 -222 110 -364 354 -347 598 10 139 44 238 121 345 73 102 185 187 299 225 l62 20 -1 158 c0 225 30 356 127 542 99 192 276 369 468 468 132 69 224 97 400 125 51 8 197 6 265 -3z"
       id="path116" />
    <path
       d="M1215 1346 c-37 -17 -70 -52 -84 -89 -7 -17 -11 -108 -11 -219 0 -214 6 -239 68 -286 46 -35 135 -38 178 -6 67 50 69 56 72 279 4 230 -2 254 -65 302 -41 31 -113 40 -158 19z"
       id="path118" />
    <path
       d="M2495 1346 c-37 -17 -70 -52 -84 -89 -7 -17 -11 -108 -11 -219 0 -214 6 -239 68 -286 46 -35 135 -38 178 -6 67 50 69 56 72 279 4 230 -2 254 -65 302 -41 31 -113 40 -158 19z"
       id="path120" />
    <path
       d="M3775 1346 c-37 -17 -70 -52 -84 -89 -7 -17 -11 -108 -11 -219 0 -214 6 -239 68 -286 46 -35 135 -38 178 -6 67 50 69 56 72 279 4 230 -2 254 -65 302 -41 31 -113 40 -158 19z"
       id="path122" />
    <path
       d="M1855 1026 c-37 -17 -70 -52 -84 -89 -7 -17 -11 -108 -11 -219 0 -214 6 -239 68 -286 46 -35 135 -38 178 -6 67 50 69 56 72 279 4 230 -2 254 -65 302 -41 31 -113 40 -158 19z"
       id="path124" />
    <path
       d="M3135 1026 c-37 -17 -70 -52 -84 -89 -7 -17 -11 -108 -11 -219 0 -214 6 -239 68 -286 46 -35 135 -38 178 -6 67 50 69 56 72 279 4 230 -2 254 -65 302 -41 31 -113 40 -158 19z"
       id="path126" />
  </g>
  <path
     style="fill:#ffffff;stroke-width:0.803137"
     d="M 128.90353,478.6296 C 101.11273,477.75203 91.736249,475.60888 71.077647,465.41254 36.555812,448.37379 11.347293,415.5601 3.2123725,377.07294 1.0489809,366.83771 0.22208616,346.97946 1.5402467,336.91608 4.4636434,314.59767 13.029133,293.69201 26.604939,275.74107 33.674592,266.39305 47.457148,253.1584 56.752833,246.79165 l 7.196866,-4.92922 1.385621,-12.77065 c 5.242118,-48.31423 23.006493,-86.30712 55.48866,-118.6743 21.34801,-21.272436 47.78655,-37.514733 76.28955,-46.867853 20.62969,-6.76953 29.88274,-8.346322 51.40152,-8.759213 19.97102,-0.383194 33.93929,0.551132 46.23632,3.092711 27.04321,5.58935 55.29171,18.553206 77.22215,35.438933 13.76239,10.596592 34.4466,32.533552 43.96203,46.624612 3.01374,4.46294 3.116,4.4786 14.25682,2.18357 31.46916,-6.48272 62.6398,-2.07545 91.84685,12.98638 13.09562,6.7533 23.01664,14.08059 34.12763,25.20537 11.32235,11.3364 16.61783,18.5225 24.54822,33.31252 8.14074,15.1823 8.34324,15.41396 15.76225,18.03217 7.36868,2.60043 21.10047,9.47212 28.57832,14.3012 21.81966,14.09081 40.89229,38.8455 49.92671,64.80073 5.25805,15.10597 6.40394,22.41996 6.42437,41.00551 0.0156,14.19029 -0.23511,17.62905 -1.81523,24.89725 -11.05467,50.84914 -49.59249,89.33769 -100.12796,99.99994 -3.5338,0.74558 -13.11122,1.66458 -21.28314,2.04222 -17.83341,0.8241 -402.90551,0.74882 -429.27686,-0.0839 z m 435.70196,-42.42984 c 13.25451,-1.22146 17.73318,-2.45397 27.99957,-7.70535 22.75182,-11.63785 38.66019,-31.43912 45.18351,-56.24029 2.55144,-9.70037 2.95669,-26.54895 0.87894,-36.54275 -4.4494,-21.40132 -17.7037,-41.75461 -34.90632,-53.60212 -12.42525,-8.55731 -27.17202,-14.0495 -41.44521,-15.43558 -4.13045,-0.40112 -7.67603,-0.89542 -7.87907,-1.09846 -0.20305,-0.20304 -0.69793,-2.69067 -1.09976,-5.52806 -0.84436,-5.96231 -5.4261,-19.60699 -8.9598,-26.68286 -5.01575,-10.0435 -17.3948,-24.14336 -29.9708,-34.13704 -14.0052,-11.12943 -34.49331,-17.71823 -55.09545,-17.71823 -19.82917,0 -35.70207,4.51354 -53.39031,15.18182 -3.0005,1.80969 -5.88318,3.29034 -6.40594,3.29034 -0.52277,0 -1.94405,-2.80094 -3.15841,-6.22432 C 389.50212,174.43399 375.1906,152.58054 359.5746,137.5916 334.13648,113.17494 301.22288,98.624869 266.24,96.331295 224.65172,93.604653 185.50863,107.46199 154.66065,135.83234 c -23.11257,21.25622 -40.33932,52.11931 -45.48943,81.49789 -1.28354,7.32188 -1.78186,14.47881 -2.13142,30.6118 l -0.45622,21.05575 -5.30433,1.73415 c -26.31583,8.60342 -48.469993,31.87324 -55.364698,58.15278 -10.719918,40.85955 6.850913,80.49231 44.160913,99.60933 12.762235,6.53916 18.126805,7.48668 47.662575,8.41847 31.44237,0.99193 415.32474,0.35096 426.86745,-0.71275 z"
     id="path138"
     transform="scale(0.74999998)" />
  <path
     style="fill:#ffffff;stroke-width:0.803137"
     d="m 162.23373,583.8158 c -4.48733,-2.03125 -7.69129,-5.01096 -9.80164,-9.11558 -2.30346,-4.48023 -3.3251,-22.78567 -2.40254,-43.04793 0.79281,-17.41261 1.15047,-18.70513 6.6539,-24.04602 7.75909,-7.52995 19.28352,-7.34057 27.95901,0.45944 6.46425,5.81192 6.73018,7.3977 6.29395,37.53089 -0.22541,15.56958 -0.70998,26.12075 -1.28187,27.91142 -1.14635,3.58941 -5.91874,8.50637 -10.15336,10.46094 -4.46107,2.0591 -12.53853,1.98745 -17.26745,-0.15316 z"
     id="path140"
     transform="scale(0.74999998)" />
  <path
     style="fill:#ffffff;stroke-width:0.803137"
     d="m 247.71534,626.53507 c -4.93066,-2.2395 -8.91304,-6.15706 -10.53693,-10.36544 -1.30232,-3.37498 -1.45763,-6.60143 -1.45763,-30.281 0,-25.64104 0.0565,-26.60808 1.73669,-29.71608 3.93629,-7.28145 10.25494,-11.2133 17.94018,-11.16348 8.17069,0.053 15.49229,4.22293 18.86455,10.74418 2.32637,4.49869 3.03456,17.16614 2.18535,39.08944 -0.68947,17.79929 -0.9636,20.409 -2.4498,23.3222 -1.76785,3.46528 -6.46503,7.67776 -10.10384,9.06123 -3.5656,1.35564 -12.51394,0.97342 -16.17857,-0.69105 z"
     id="path142"
     transform="scale(0.74999998)" />
  <path
     style="fill:#ffffff;stroke-width:0.803137"
     d="m 334.03265,584.38586 c -4.25273,-1.52015 -8.6553,-5.17863 -10.43872,-8.67441 -2.61558,-5.12696 -3.36896,-14.55122 -2.97022,-37.15529 0.40496,-22.9566 0.62529,-24.15095 5.47429,-29.67365 3.98264,-4.53598 8.25039,-6.45527 14.4322,-6.49045 9.24388,-0.0526 17.90311,5.68401 20.24542,13.4123 1.43604,4.73811 1.34612,48.81281 -0.11348,55.6278 -0.8592,4.01162 -1.63968,5.40451 -4.65933,8.31527 -1.99499,1.92306 -4.83521,4.00117 -6.31159,4.61804 -3.32373,1.38874 -11.79964,1.39978 -15.65857,0.0204 z"
     id="path144"
     transform="scale(0.74999998)" />
  <path
     style="fill:#ffffff;stroke-width:0.803137"
     d="m 419.16986,626.95374 c -3.95562,-1.41404 -8.31281,-5.04415 -10.30144,-8.58244 -2.63286,-4.68455 -3.57342,-16.75335 -3.02607,-38.82898 0.46155,-18.61497 0.53983,-19.32702 2.58394,-23.50503 4.00934,-8.19479 13.41009,-12.86664 21.6934,-10.78088 8.03472,2.02317 13.5458,6.45462 15.73725,12.65431 1.50721,4.26395 1.52276,52.05602 0.0186,57.13715 -1.27418,4.30426 -5.93603,9.57716 -10.17357,11.50708 -3.8046,1.73275 -12.23184,1.93603 -16.5321,0.39879 z"
     id="path146"
     transform="scale(0.74999998)" />
  <path
     style="fill:#ffffff;stroke-width:0.803137"
     d="m 503.56706,583.8158 c -4.48733,-2.03125 -7.69129,-5.01096 -9.80164,-9.11558 -2.30346,-4.48023 -3.3251,-22.78567 -2.40254,-43.04793 0.79282,-17.41261 1.15048,-18.70513 6.6539,-24.04602 7.7591,-7.52995 19.28353,-7.34057 27.95901,0.45944 6.46425,5.81192 6.73019,7.3977 6.29395,37.53089 -0.2254,15.56958 -0.70998,26.12075 -1.28187,27.91142 -1.14635,3.58941 -5.91874,8.50637 -10.15336,10.46094 -4.46107,2.0591 -12.53853,1.98745 -17.26745,-0.15316 z"
     id="path148"
     transform="scale(0.74999998)" />
</svg>
