<?xml version="1.0" encoding="UTF-8" standalone="no"?>
<svg
   xmlns:dc="http://purl.org/dc/elements/1.1/"
   xmlns:cc="http://creativecommons.org/ns#"
   xmlns:rdf="http://www.w3.org/1999/02/22-rdf-syntax-ns#"
   xmlns:svg="http://www.w3.org/2000/svg"
   xmlns="http://www.w3.org/2000/svg"
   xmlns:sodipodi="http://sodipodi.sourceforge.net/DTD/sodipodi-0.dtd"
   xmlns:inkscape="http://www.inkscape.org/namespaces/inkscape"
   version="1.0"
   width="512.000000pt"
   height="512.000000pt"
   viewBox="0 0 512.000000 512.000000"
   preserveAspectRatio="xMidYMid meet"
   id="svg182"
   sodipodi:docname="mist2.svg"
   inkscape:version="1.0.2 (e86c870879, 2021-01-15)">
  <metadata
     id="metadata188">
    <rdf:RDF>
      <cc:Work
         rdf:about="">
        <dc:format>image/svg+xml</dc:format>
        <dc:type
           rdf:resource="http://purl.org/dc/dcmitype/StillImage" />
        <dc:title></dc:title>
      </cc:Work>
    </rdf:RDF>
  </metadata>
  <defs
     id="defs186" />
  <sodipodi:namedview
     pagecolor="#ffffff"
     bordercolor="#666666"
     borderopacity="1"
     objecttolerance="10"
     gridtolerance="10"
     guidetolerance="10"
     inkscape:pageopacity="0"
     inkscape:pageshadow="2"
     inkscape:window-width="1920"
     inkscape:window-height="1017"
     id="namedview184"
     showgrid="false"
     inkscape:zoom="1.2451172"
     inkscape:cx="341.33333"
     inkscape:cy="341.33333"
     inkscape:window-x="-8"
     inkscape:window-y="-8"
     inkscape:window-maximized="1"
     inkscape:current-layer="svg182" />
  <g
     transform="translate(0.000000,512.000000) scale(0.100000,-0.100000)"
     fill="#000000"
     stroke="none"
     id="g180">
    <path
       d="M33 4435 c-32 -32 -35 -39 -30 -78 7 -52 45 -88 197 -189 186 -123 345 -188 463 -188 104 0 193 44 352 175 88 73 163 109 208 100 39 -8 108 -53 207 -134 41 -34 109 -79 150 -99 69 -34 80 -37 165 -37 82 0 97 3 155 32 36 18 115 70 176 116 130 100 166 120 214 120 48 0 98 -28 210 -118 130 -104 218 -147 314 -153 121 -8 187 23 389 181 167 131 196 127 432 -59 39 -30 99 -69 135 -87 58 -29 73 -32 155 -32 110 0 152 18 295 126 204 154 229 164 336 127 84 -30 175 -82 315 -182 129 -92 159 -98 216 -41 32 32 35 39 30 78 -7 52 -55 99 -207 200 -195 130 -333 182 -459 175 -101 -6 -156 -32 -306 -145 -140 -105 -176 -126 -225 -126 -48 0 -76 16 -205 117 -60 48 -139 101 -175 119 -59 29 -73 32 -160 32 -87 0 -101 -3 -160 -32 -36 -18 -114 -71 -175 -119 -132 -103 -157 -117 -213 -116 -49 0 -98 26 -192 102 -110 89 -207 148 -264 161 -130 29 -246 -11 -411 -141 -208 -165 -234 -165 -445 5 -123 98 -202 138 -288 143 -127 8 -200 -23 -382 -168 -107 -85 -144 -104 -200 -103 -79 1 -241 83 -419 212 -105 76 -143 81 -198 26z"
       id="path170" />
    <path
       d="M63 3630 c-13 -5 -32 -24 -43 -42 -28 -44 -20 -91 22 -135 72 -75 354 -244 467 -279 179 -56 282 -30 468 119 130 104 169 127 220 127 57 0 97 -22 218 -120 158 -128 263 -169 384 -149 77 12 139 45 267 143 130 98 180 126 229 126 48 0 68 -12 210 -120 137 -103 198 -137 276 -149 128 -21 222 18 414 174 89 72 134 95 185 95 53 0 86 -17 194 -102 186 -147 244 -173 368 -167 95 5 164 39 313 152 61 46 125 91 142 101 92 47 227 -4 477 -183 82 -58 107 -71 138 -71 72 0 117 54 104 124 -8 43 -50 80 -201 181 -199 133 -352 192 -472 182 -87 -7 -164 -46 -316 -160 -148 -112 -187 -127 -253 -102 -24 9 -92 55 -151 101 -283 221 -420 219 -698 -11 -72 -59 -154 -105 -190 -105 -38 0 -120 47 -215 124 -52 42 -129 93 -170 114 -69 34 -80 37 -160 36 -119 -1 -172 -26 -350 -167 -41 -33 -99 -71 -128 -84 -86 -40 -126 -25 -292 109 -47 38 -119 86 -159 106 -69 34 -82 37 -160 37 -76 0 -94 -4 -151 -31 -36 -17 -120 -75 -188 -127 -70 -55 -140 -102 -163 -108 -87 -27 -223 35 -503 230 -59 41 -90 48 -133 31z"
       id="path172" />
    <path
       d="M62 2793 c-36 -17 -62 -58 -62 -95 0 -47 39 -86 175 -177 230 -154 355 -206 490 -205 115 1 175 31 350 172 85 70 144 101 188 102 42 0 101 -34 209 -121 117 -94 165 -122 242 -144 130 -38 227 -4 429 148 70 53 146 102 167 108 58 17 104 0 201 -74 189 -145 264 -186 357 -194 112 -10 195 28 372 167 95 75 157 110 194 110 47 0 107 -32 214 -117 185 -145 286 -181 413 -149 78 20 122 46 253 146 136 103 176 123 237 118 81 -8 240 -92 405 -215 86 -64 120 -73 167 -44 52 32 69 83 46 135 -21 45 -246 205 -375 267 -154 73 -245 90 -344 65 -77 -20 -136 -54 -256 -148 -103 -81 -171 -118 -214 -118 -43 0 -90 27 -199 113 -123 97 -183 133 -256 152 -77 20 -110 19 -184 -4 -72 -22 -130 -58 -249 -153 -103 -83 -149 -108 -197 -108 -50 0 -93 24 -220 124 -125 99 -185 131 -268 147 -122 22 -222 -20 -417 -175 -165 -130 -209 -129 -389 16 -122 99 -183 134 -264 154 -125 31 -228 -3 -382 -128 -124 -99 -190 -138 -236 -138 -80 0 -241 78 -408 198 -69 50 -128 82 -148 82 -4 0 -23 -8 -41 -17z"
       id="path174" />
    <path
       d="M1130 1966 c-74 -16 -142 -55 -253 -143 -139 -112 -166 -126 -235 -121 -88 6 -231 80 -421 215 -87 63 -137 71 -183 28 -57 -52 -50 -115 20 -173 76 -63 225 -159 319 -206 133 -66 185 -81 284 -81 78 0 91 3 160 37 40 21 119 74 174 119 104 85 163 119 205 119 41 0 101 -33 187 -103 176 -144 265 -184 383 -174 92 8 155 39 302 149 70 53 147 103 171 113 65 25 107 9 224 -82 198 -155 273 -189 394 -181 92 7 163 43 304 154 130 102 181 129 233 119 52 -10 75 -23 197 -119 61 -48 139 -101 175 -119 58 -28 74 -32 151 -32 78 0 91 3 160 37 40 20 117 71 169 113 104 82 179 125 220 125 83 0 230 -78 465 -246 42 -30 56 -35 88 -31 44 6 62 19 84 60 20 39 10 89 -26 124 -78 79 -331 233 -447 274 -188 65 -289 39 -509 -131 -119 -92 -152 -110 -200 -110 -47 0 -96 26 -186 98 -193 152 -289 192 -418 171 -76 -12 -141 -48 -267 -146 -126 -99 -170 -123 -219 -123 -50 0 -104 30 -220 122 -55 43 -127 92 -161 109 -154 76 -290 48 -476 -99 -218 -173 -252 -174 -450 -11 -159 130 -274 173 -398 145z"
       id="path176" />
    <path
       d="M33 1105 c-32 -32 -35 -40 -30 -76 7 -55 36 -84 181 -180 138 -93 225 -139 333 -175 66 -22 91 -26 160 -22 104 6 171 38 308 148 197 159 233 161 412 16 174 -140 248 -172 375 -164 85 5 181 52 302 148 202 161 230 161 426 6 139 -111 216 -148 312 -154 123 -7 204 28 363 158 184 151 224 151 417 -5 51 -41 125 -92 163 -113 67 -35 74 -37 165 -37 120 0 160 18 320 139 144 110 181 130 243 129 77 -1 258 -97 424 -224 83 -64 127 -67 180 -14 32 32 35 40 30 76 -3 26 -16 52 -33 70 -47 49 -244 181 -343 229 -246 121 -372 107 -587 -61 -149 -118 -206 -145 -269 -128 -19 6 -95 55 -168 110 -184 139 -217 154 -337 154 -87 0 -101 -3 -160 -32 -36 -18 -108 -66 -160 -108 -127 -102 -173 -128 -224 -128 -53 0 -91 20 -196 102 -189 148 -249 176 -368 169 -92 -6 -182 -49 -306 -148 -121 -96 -169 -123 -220 -123 -54 0 -101 26 -221 123 -134 108 -204 142 -303 148 -124 7 -189 -23 -367 -166 -44 -36 -104 -76 -133 -89 -48 -22 -57 -24 -105 -13 -28 6 -88 28 -132 50 -76 37 -125 68 -278 173 -87 60 -123 63 -174 12z"
       id="path178" />
  </g>
  <path
     style="fill:#ffffff;stroke-width:0.803137"
     d="M 79.10902,150.61737 C 63.486089,147.7534 42.966643,137.71878 19.743938,121.58609 5.0701511,111.39229 0.80313725,106.39192 0.80313725,99.390039 c 0,-3.092652 0.42025485,-3.882222 3.81490195,-7.167393 4.3259149,-4.186406 6.5074698,-5.487265 9.1832798,-5.475977 3.055661,0.01289 9.607033,3.488281 19.258843,10.216489 17.223742,12.006542 32.522842,20.617072 42.836309,24.108822 14.611195,4.9468 18.640679,3.47304 44.247759,-16.18333 17.55653,-13.47665 26.39037,-17.346689 39.59595,-17.346689 15.08413,0 24.20999,4.196051 44.86703,20.629759 9.90608,7.88078 17.41515,12.66059 22.50532,14.3255 8.21189,2.68597 14.76675,0.0989 31.0961,-12.27283 14.49009,-10.978268 19.67861,-14.385762 27.21123,-17.870614 8.44021,-3.904739 13.8591,-5.162302 21.78014,-5.054524 11.55619,0.15724 21.09096,4.660591 39.24391,18.535218 20.17499,15.4201 23.6251,17.28559 31.87318,17.23396 7.03036,-0.044 9.86625,-1.54276 26.46409,-13.98604 14.92901,-11.192187 23.67329,-16.860203 29.89233,-19.376127 3.66457,-1.48251 5.87841,-1.718901 16.28806,-1.739219 l 12.04706,-0.02352 6.14871,2.936275 c 7.28185,3.4774 14.02826,7.976669 29.0393,19.366681 14.7701,11.20721 18.10099,12.9951 24.24414,13.01335 6.28595,0.0187 10.54923,-2.10669 24.09412,-12.01157 30.04078,-21.96772 35.48081,-24.370461 53.2457,-23.517434 6.70559,0.321986 10.21903,0.957859 15.97701,2.891569 13.80025,4.634557 33.40271,15.690665 50.77968,28.640565 11.61571,8.65642 15.32624,13.58137 15.32624,20.34238 0,2.68725 -0.57445,3.69807 -4.11212,7.23573 -7.12649,7.12649 -10.47027,6.6228 -25.60396,-3.85681 -22.1458,-15.33529 -35.12155,-22.70977 -46.02106,-26.15506 -13.16501,-4.1614 -16.01361,-3.07159 -42.24324,16.16126 -22.00699,16.13661 -28.31758,18.62767 -45.14648,17.82122 -6.48087,-0.31057 -8.57245,-0.76894 -13.03262,-2.8561 -6.82311,-3.19292 -14.9414,-8.44668 -25.0264,-16.19587 -17.2153,-13.22802 -22.94415,-16.29956 -30.52584,-16.36651 -6.42063,-0.0567 -10.54149,2.20159 -28.44101,15.58614 -23.16002,17.31813 -29.47732,20.2868 -43.03158,20.22168 -15.33548,-0.0737 -24.77924,-4.54682 -48.73633,-23.08451 -12.66898,-9.80309 -18.17574,-12.62538 -24.63416,-12.62538 -6.20986,0 -10.70024,2.21344 -22.82708,11.25218 -13.87933,10.34495 -25.09674,17.71963 -31.78171,20.89431 -5.74981,2.73057 -6.62143,2.90688 -15.89686,3.21568 -8.28959,0.27597 -10.66399,0.0665 -15.29026,-1.34891 -7.3013,-2.23384 -16.3687,-7.52654 -27.44334,-16.01886 -21.70198,-16.64163 -26.05642,-19.08592 -32.76717,-18.3933 -5.05091,0.5213 -12.89965,4.45927 -20.35956,10.21507 -18.40098,14.19753 -22.83868,17.30404 -29.31451,20.52094 -7.37642,3.66427 -15.930561,5.98311 -21.684711,5.87826 -1.766902,-0.0322 -5.742431,-0.52231 -8.834509,-1.08914 z"
     id="path190"
     transform="scale(0.74999998)" />
  <path
     style="fill:#ffffff;stroke-width:0.803137"
     d="m 222.46902,372.65238 c -8.9859,-2.42338 -16.30869,-6.23018 -25.70039,-13.36049 -4.63812,-3.52133 -11.52766,-8.75984 -15.31011,-11.64113 -19.50926,-14.86129 -24.59137,-14.27677 -50.14558,5.76752 -21.81154,17.10859 -29.96276,20.6302 -45.778822,19.77803 C 68.718188,372.29027 53.929692,365.99167 26.976393,348.25588 6.6129233,334.85633 0.80313725,329.27513 0.80313725,323.11243 c 0,-1.94897 0.52365565,-4.55621 1.16367915,-5.79388 1.6002115,-3.09447 6.1608491,-6.94972 9.5409156,-8.06524 3.944788,-1.3019 6.157469,-0.22611 23.868675,11.60472 24.414228,16.30836 41.787318,24.49099 51.998469,24.49099 6.012334,0 12.703794,-3.20012 23.056494,-11.02652 3.97553,-3.0054 10.11953,-7.66106 13.65334,-10.34591 13.8754,-10.542 23.9192,-14.76875 35.09422,-14.76875 12.86697,0 23.06675,4.16461 37.88191,15.46731 25.1624,19.19677 28.5581,21.07416 37.05367,20.4859 6.63183,-0.4592 10.944,-2.72944 24.09412,-12.68495 18.89056,-14.30141 27.17856,-19.25912 36.94019,-22.09691 6.6465,-1.93219 18.13897,-1.28333 25.49694,1.43955 7.45227,2.75777 12.17397,5.74581 28.59244,18.09424 17.27819,12.99503 21.79607,15.43628 28.56537,15.43541 6.38795,-8.1e-4 12.04915,-2.68266 22.15878,-10.49709 23.46872,-18.14056 29.53485,-21.78932 41.36157,-24.87887 7.62818,-1.99274 13.4928,-1.68879 22.47972,1.16509 8.53519,2.71043 14.45876,6.30231 31.45634,19.07422 17.19743,12.92208 21.19216,15.11804 27.52247,15.12943 6.25843,0.0113 13.17581,-3.68477 28.58717,-15.2745 14.53947,-10.93405 21.29561,-15.17194 29.09841,-18.25244 4.86638,-1.92122 6.48808,-2.14333 15.86138,-2.17242 9.31676,-0.0289 11.17573,0.20919 17.26745,2.2116 15.81315,5.19795 41.60973,20.18705 58.54123,34.01536 7.35369,6.00591 9.72544,9.4603 9.72544,14.16486 0,6.77991 -6.54914,13.42519 -13.23096,13.42519 -3.79697,0 -7.44109,-1.93243 -19.15893,-10.15976 -25.93347,-18.2084 -43.271,-26.51595 -53.92232,-25.83772 -6.95747,0.44302 -12.30799,3.34089 -29.15751,15.79182 -24.0156,17.74632 -28.2835,19.70034 -43.14989,19.75575 -8.06255,0.0301 -10.41447,-0.25622 -14.39087,-1.75165 -7.31323,-2.75034 -15.73557,-7.87796 -27.27865,-16.60758 -18.82782,-14.23881 -24.52447,-17.34856 -31.71773,-17.31439 -6.20212,0.0294 -10.63473,2.56607 -30.3293,17.35634 -23.00395,17.27557 -34.46754,21.57497 -49.20555,18.45448 -10.54585,-2.23288 -19.21357,-7.15393 -40.23241,-22.84174 -14.24144,-10.62936 -18.12162,-12.58882 -24.89725,-12.57286 -6.45601,0.0152 -8.68522,1.21733 -28.7545,15.50628 -7.86539,5.6 -16.99164,11.6942 -20.28056,13.54266 -12.3622,6.9479 -22.89251,8.78336 -33.68808,5.87193 z"
     id="path192"
     transform="scale(0.74999998)" />
  <path
     style="fill:#ffffff;stroke-width:0.803137"
     d="M 77.191913,261.38532 C 66.438806,259.05247 59.248623,256.04805 43.743161,247.40875 19.432622,233.86347 3.5834522,221.55332 1.5517662,214.63843 -1.183886,205.32758 7.9883131,195.94367 17.134321,198.69622 c 1.864365,0.56109 8.922164,4.72024 15.683996,9.24255 29.377328,19.64756 43.601084,26.57731 54.551652,26.57731 6.236835,0 10.89034,-2.40753 25.069251,-12.96975 15.20921,-11.32973 26.47094,-18.70521 31.89944,-20.89142 4.09504,-1.64919 5.98142,-1.87049 15.97608,-1.87422 l 11.33277,-0.004 8.34409,4.1933 c 7.90725,3.97376 13.82574,7.99706 30.16881,20.50829 9.43076,7.2196 17.01519,11.04384 21.85338,11.01896 6.8847,-0.0354 14.39659,-4.11592 31.01366,-16.84682 21.67118,-16.60304 30.145,-20.03423 47.10929,-19.07536 6.05546,0.34228 7.81693,0.81379 13.65333,3.65472 7.66423,3.73064 14.06751,7.91648 27.18091,17.76821 11.32389,8.50733 17.59115,12.34729 23.04788,14.12148 3.8749,1.25987 4.45587,1.2636 8.1039,0.0519 5.31718,-1.76608 14.11015,-7.29315 24.26469,-15.25225 16.58898,-13.00239 25.71997,-18.06259 36.5955,-20.28043 14.48415,-2.95374 28.28709,2.3766 52.00568,20.08328 18.64404,13.91837 23.06095,16.23157 29.59818,15.50102 5.01573,-0.56053 9.75655,-3.07592 20.76725,-11.01869 22.87399,-16.50059 30.32364,-20.9416 39.66462,-23.64551 6.98728,-2.0226 20.35354,-1.30547 28.97975,1.55481 10.84411,3.5957 26.61212,11.88552 41.78638,21.96861 14.91767,9.91259 22.88214,16.41671 24.91393,20.34576 2.54827,4.92781 0.7457,12.85268 -3.63253,15.97026 -3.00793,2.14183 -8.35047,3.23797 -11.51843,2.36325 -3.09562,-0.85474 -7.02857,-3.26932 -23.6483,-14.51855 -22.8353,-15.45632 -35.77807,-21.16164 -46.74501,-20.60574 -3.57093,0.18101 -7.20604,0.88106 -8.86427,1.7071 -1.54604,0.77015 -9.13569,6.06776 -16.86589,11.77247 -24.64167,18.185 -32.16929,21.68924 -46.74402,21.76017 -14.57824,0.0709 -20.17092,-2.54654 -44.03405,-20.60879 -17.63327,-13.34682 -21.20538,-15.1268 -29.31259,-14.60652 -6.49875,0.41707 -10.39676,2.20923 -18.85208,8.66751 -18.23901,13.93119 -22.68107,17.13839 -27.77384,20.0529 -10.18736,5.83008 -13.91225,6.8476 -24.83165,6.7832 -8.50059,-0.0501 -10.29977,-0.31479 -15.24976,-2.24328 -7.32945,-2.85551 -13.91752,-7.02542 -30.52907,-19.32333 -16.51922,-12.22956 -20.00515,-14.11652 -26.05886,-14.10587 -7.1507,0.0126 -12.38941,2.94442 -34.97957,19.57628 -24.91461,18.34323 -39.94397,21.02376 -60.42812,10.77752 -5.98557,-2.994 -10.75171,-6.33632 -29.92482,-20.98516 -13.37948,-10.22233 -20.72286,-11.78131 -31.01366,-6.58411 -3.041,1.5358 -10.22744,6.45663 -15.96987,10.93518 -13.08988,10.20886 -18.13272,13.65164 -25.16818,17.18249 -10.059007,5.04827 -20.413751,6.36582 -31.362257,3.99057 z"
     id="path194"
     transform="scale(0.74999998)" />
  <path
     style="fill:#ffffff;stroke-width:0.803137"
     d="m 225.59794,484.23773 c -10.13771,-1.49123 -20.29318,-7.20393 -39.67167,-22.31628 -10.86753,-8.47507 -18.86159,-13.21701 -23.74021,-14.08231 -6.08845,-1.07988 -13.34855,2.68818 -29.35589,15.23596 -10.4258,8.17255 -21.93529,15.67304 -28.42233,18.52223 -4.934569,2.16733 -5.83601,2.29206 -16.464311,2.27806 -13.361947,-0.0176 -17.885345,-1.16335 -32.928627,-8.34063 -17.517334,-8.35767 -43.803476,-25.5328 -50.2012187,-32.80102 -5.70649593,-6.48292 -5.46634612,-13.05902 0.6874693,-18.8252 4.01504,-3.76212 7.7429234,-4.549 12.6581334,-2.67186 1.998438,0.76321 9.766258,5.49054 17.261823,10.50517 26.461543,17.70313 41.070039,24.44011 52.99603,24.44011 6.369096,0 12.170181,-3.14412 26.673041,-14.45647 20.77989,-16.20849 29.71236,-20.69112 42.72629,-21.4416 14.6249,-0.84337 25.4914,4.10305 47.78667,21.75244 13.34815,10.56666 20.05388,14.15344 26.41065,14.12657 8.02083,-0.0339 13.32976,-2.98511 34.62778,-19.24939 10.75524,-8.21327 22.36622,-14.09584 31.29388,-15.85468 5.58534,-1.10038 7.69578,-1.16405 12.99283,-0.39199 11.67747,1.702 17.65902,4.8603 38.61789,20.39042 16.55522,12.26711 20.77364,14.54941 27.7082,14.99097 4.45144,0.28344 5.73267,0.0105 10.08859,-2.14916 2.74427,-1.36061 11.26865,-7.18715 18.94306,-12.94787 22.46072,-16.85992 28.75542,-19.99646 41.56342,-20.71032 15.01384,-0.8368 23.8673,3.15606 49.26663,22.21898 14.73689,11.06047 18.65318,13.14492 25.52674,13.58669 6.58397,0.42316 10.62374,-1.54029 24.13596,-11.73074 14.65433,-11.05179 26.0473,-18.28653 33.45584,-21.24503 5.95258,-2.37707 7.17889,-2.57897 15.69323,-2.58374 11.17745,-0.006 17.99014,1.7066 30.51922,7.67317 19.55205,9.31104 47.53918,27.96425 52.45799,34.96286 3.21711,4.5774 3.62198,9.25215 1.20328,13.89344 -1.0224,1.96191 -2.81371,4.26211 -3.98068,5.11156 -2.95144,2.14841 -7.98722,2.93959 -11.26271,1.7695 -1.47305,-0.52622 -10.48377,-6.19794 -20.02383,-12.60382 -19.64234,-13.1893 -33.95121,-20.7788 -42.9498,-22.78079 -5.6168,-1.24962 -6.27867,-1.24845 -10.20145,0.018 -5.41259,1.74749 -12.86562,6.39493 -26.00654,16.21676 -13.38212,10.00209 -21.75804,15.06064 -29.25335,17.66726 -5.40024,1.87802 -6.76635,2.0275 -15.57626,1.70443 -8.64931,-0.31718 -10.21026,-0.60916 -14.96105,-2.79848 -6.52541,-3.00712 -14.51461,-8.33799 -29.47843,-19.66973 -15.081,-11.42048 -18.20366,-13.02349 -25.45266,-13.06606 -7.49216,-0.044 -10.7751,1.68158 -28.66985,15.06958 -7.7909,5.82878 -16.1725,11.81019 -18.62577,13.292 -17.47121,10.55292 -34.23635,10.44034 -51.99781,-0.34918 -2.69834,-1.63915 -11.3218,-7.75215 -19.16325,-13.58444 -15.67153,-11.65613 -20.0219,-14.13485 -25.77871,-14.688 -6.30043,-0.60539 -11.16262,2.13915 -37.26118,21.03267 -17.26061,12.49547 -30.21181,16.88857 -43.86706,14.87992 z"
     id="path196"
     transform="scale(0.74999998)" />
  <path
     style="fill:#ffffff;stroke-width:0.803137"
     d="m 662.9898,594.41919 c -1.7669,-0.81036 -6.28455,-3.76264 -10.03921,-6.56063 -11.46203,-8.54153 -23.17989,-15.84566 -34.13334,-21.27645 -16.82227,-8.34059 -23.10219,-9.17175 -32.92862,-4.35817 -4.66605,2.2857 -6.83637,3.77892 -27.13589,18.6699 -16.30353,11.95966 -24.6664,14.86062 -40.4746,14.04003 -6.32496,-0.32833 -8.22701,-0.78737 -13.357,-3.22359 -7.19711,-3.41789 -17.13154,-10.05645 -29.06232,-19.42052 -4.85898,-3.81366 -11.48064,-8.25475 -14.71482,-9.86909 -11.62764,-5.80398 -18.45531,-3.81047 -36.68596,10.71136 -16.44002,13.09549 -25.25791,18.43335 -34.53077,20.90301 -4.85995,1.29435 -16.41089,1.41143 -22.25166,0.22554 -7.7559,-1.57474 -17.97456,-7.3714 -33.16894,-18.81549 -17.54382,-13.21363 -22.0474,-15.65867 -28.84044,-15.65779 -6.88145,8.8e-4 -11.94242,2.62357 -27.37917,14.18838 -15.39577,11.5341 -20.60762,14.7933 -28.99037,18.12895 -5.52031,2.19663 -7.55458,2.56841 -15.6073,2.85233 -8.29657,0.29251 -9.89172,0.11428 -15.33701,-1.71364 -9.43937,-3.1687 -12.90249,-5.4016 -37.93878,-24.46171 -17.45699,-13.28999 -24.55937,-12.57311 -46.69125,4.71278 -23.46,18.32321 -30.67501,21.59421 -47.684946,21.61844 -7.414242,0.0106 -9.261923,-0.29956 -16.787048,-2.81762 C 54.304316,587.29395 41.802446,580.61339 21.350523,566.69922 5.1382172,555.66942 0.81876341,550.7431 0.85341582,543.32235 c 0.0170745,-3.65648 2.35507178,-6.88515 7.49081648,-10.34447 5.7907147,-3.9005 7.7555757,-3.15238 28.9054387,11.00573 22.281547,14.91569 41.076503,23.83443 50.227605,23.83443 6.286886,0 13.962964,-4.51042 34.890594,-20.50152 16.70347,-12.76335 23.93103,-15.84958 37.10532,-15.84429 5.23977,0.002 9.75866,0.48796 12.8502,1.38162 6.4315,1.85913 15.61399,6.72816 22.43739,11.89748 3.09208,2.34251 9.50122,7.21769 14.24254,10.83373 19.65775,14.99229 27.17225,15.38124 44.47311,2.30191 3.04444,-2.30157 8.78804,-6.6473 12.76357,-9.65717 13.76893,-10.42446 23.86197,-15.21188 35.01999,-16.61098 14.50541,-1.81883 23.47062,1.94557 47.30158,19.86141 18.17941,13.66707 21.87188,15.64203 29.32536,15.68503 6.65712,0.0384 11.00809,-2.01441 22.08181,-10.41836 18.13537,-13.76309 23.20408,-17.24262 30.33505,-20.82412 7.31016,-3.67149 7.62359,-3.74916 16.46432,-4.08005 4.95675,-0.18553 11.18075,0.0586 13.83111,0.5425 6.98331,1.27501 16.21351,6.20087 28.1098,15.00129 15.41073,11.40028 26.59315,18.67933 30.1797,19.64509 7.05468,1.89963 14.20906,-1.3639 31.72963,-14.47373 19.51294,-14.60064 27.90255,-19.05828 39.31639,-20.88994 16.48244,-2.64504 38.05418,5.66046 69.03938,26.58137 14.11313,9.52904 18.4199,13.23916 20.84667,17.95858 3.09969,6.02809 2.77321,9.32323 -1.37059,13.83293 -5.39876,5.87547 -9.60119,7.06559 -15.4604,4.37837 z"
     id="path198"
     transform="scale(0.74999998)" />
</svg>
