<?xml version="1.0" encoding="UTF-8" standalone="no"?>
<svg
   xmlns:dc="http://purl.org/dc/elements/1.1/"
   xmlns:cc="http://creativecommons.org/ns#"
   xmlns:rdf="http://www.w3.org/1999/02/22-rdf-syntax-ns#"
   xmlns:svg="http://www.w3.org/2000/svg"
   xmlns="http://www.w3.org/2000/svg"
   xmlns:sodipodi="http://sodipodi.sourceforge.net/DTD/sodipodi-0.dtd"
   xmlns:inkscape="http://www.inkscape.org/namespaces/inkscape"
   version="1.0"
   width="512.000000pt"
   height="512.000000pt"
   viewBox="0 0 512.000000 512.000000"
   preserveAspectRatio="xMidYMid meet"
   id="svg259"
   sodipodi:docname="rain2.svg"
   inkscape:version="1.0.2 (e86c870879, 2021-01-15)">
  <metadata
     id="metadata265">
    <rdf:RDF>
      <cc:Work
         rdf:about="">
        <dc:format>image/svg+xml</dc:format>
        <dc:type
           rdf:resource="http://purl.org/dc/dcmitype/StillImage" />
        <dc:title></dc:title>
      </cc:Work>
    </rdf:RDF>
  </metadata>
  <defs
     id="defs263" />
  <sodipodi:namedview
     pagecolor="#ffffff"
     bordercolor="#666666"
     borderopacity="1"
     objecttolerance="10"
     gridtolerance="10"
     guidetolerance="10"
     inkscape:pageopacity="0"
     inkscape:pageshadow="2"
     inkscape:window-width="1920"
     inkscape:window-height="1017"
     id="namedview261"
     showgrid="false"
     inkscape:zoom="1.2451172"
     inkscape:cx="341.33333"
     inkscape:cy="341.33333"
     inkscape:window-x="-8"
     inkscape:window-y="-8"
     inkscape:window-maximized="1"
     inkscape:current-layer="svg259" />
  <g
     transform="translate(0.000000,512.000000) scale(0.100000,-0.100000)"
     fill="#000000"
     stroke="none"
     id="g257">
    <path
       d="M2236 5110 c-479 -60 -890 -348 -1101 -769 -73 -147 -135 -379 -135 -511 0 -85 -7 -100 -44 -100 -17 0 -69 -9 -115 -20 -193 -47 -342 -130 -482 -269 -197 -197 -290 -419 -290 -691 0 -280 99 -510 304 -707 132 -127 295 -215 477 -259 70 -17 169 -18 1520 -22 1499 -3 1562 -2 1721 38 358 91 660 330 826 656 94 184 134 351 134 554 1 263 -65 480 -211 698 -228 341 -639 560 -1055 562 l-90 0 -32 69 c-57 121 -151 250 -262 361 -206 205 -459 340 -742 395 -99 19 -325 27 -423 15z m340 -335 c226 -39 428 -142 588 -299 117 -116 188 -227 256 -404 24 -63 40 -89 67 -110 l36 -27 211 -1 c201 0 215 -1 301 -27 284 -87 492 -266 612 -523 89 -194 101 -452 31 -659 -100 -290 -337 -510 -652 -603 l-91 -27 -1460 -3 c-1649 -3 -1544 -8 -1714 75 -77 36 -109 59 -170 122 -130 130 -194 282 -194 461 0 58 7 120 17 160 58 217 229 394 451 467 69 22 99 26 215 28 147 2 179 11 219 61 33 42 40 83 30 180 -21 206 37 461 144 629 46 74 128 174 180 222 250 230 595 334 923 278z"
       id="path241" />
    <path
       d="M1155 1541 c-26 -12 -131 -110 -297 -277 -221 -223 -257 -264 -263 -297 -15 -76 8 -136 69 -181 43 -33 131 -29 183 7 22 15 148 137 280 270 205 207 243 249 252 285 16 57 5 107 -33 150 -54 62 -119 77 -191 43z"
       id="path243" />
    <path
       d="M2165 1546 c-16 -8 -150 -135 -297 -282 -258 -260 -267 -271 -273 -316 -18 -123 116 -226 227 -174 19 9 152 135 295 279 280 281 284 286 270 373 -16 97 -132 160 -222 120z"
       id="path245" />
    <path
       d="M3165 1541 c-49 -23 -539 -513 -555 -554 -46 -126 55 -247 187 -222 33 6 76 44 310 277 235 235 273 276 282 313 25 99 -56 206 -156 205 -15 0 -46 -9 -68 -19z"
       id="path247" />
    <path
       d="M4171 1544 c-38 -16 -493 -463 -537 -526 -38 -54 -42 -112 -12 -168 42 -79 136 -112 211 -74 44 22 524 500 548 546 41 79 10 175 -71 216 -51 25 -91 27 -139 6z"
       id="path249" />
    <path
       d="M1225 784 c-44 -22 -535 -513 -551 -551 -44 -101 18 -216 123 -230 77 -10 94 2 375 285 220 221 268 274 277 307 34 128 -108 249 -224 189z"
       id="path251" />
    <path
       d="M2235 786 c-16 -8 -148 -132 -292 -277 -189 -191 -263 -272 -268 -294 -4 -16 -8 -35 -10 -42 -8 -26 19 -90 54 -124 41 -41 89 -55 148 -44 33 6 76 44 302 268 145 144 270 276 277 294 46 106 -21 221 -133 230 -28 2 -60 -2 -78 -11z"
       id="path253" />
    <path
       d="M3235 780 c-56 -28 -529 -504 -550 -553 -21 -50 -19 -87 8 -137 16 -30 37 -51 67 -67 51 -27 86 -29 138 -8 47 20 525 493 554 549 41 80 6 180 -76 217 -53 24 -91 24 -141 -1z"
       id="path255" />
  </g>
  <path
     style="fill:#ffffff;stroke-width:0.803137"
     d="m 162.23373,446.54546 c -44.23026,-0.5985 -45.34808,-0.70225 -60.2341,-5.59039 C 87.014667,436.03445 71.44243,427.64743 59.513678,418.07263 53.833291,413.51319 41.091196,400.81855 36.901925,395.5451 13.187577,365.6935 4.4853542,327.13416 12.530452,287.55568 c 2.91007,-14.31632 10.55535,-31.56837 19.846796,-44.78554 6.410623,-9.11918 24.643655,-27.33069 33.881576,-33.8416 15.15387,-10.68047 36.353606,-19.19609 55.416466,-22.25995 6.13442,-0.98596 9.23654,-1.86186 10.14992,-2.8659 0.98908,-1.08727 1.45657,-3.89212 1.88445,-11.30669 1.34597,-23.32325 8.44564,-49.19808 19.38085,-70.6337 26.4679,-51.883436 78.35024,-89.120807 138.04674,-99.0799212 17.32862,-2.89091703 47.21298,-2.12551068 66.1798,1.6950149 13.55361,2.7301314 29.5567,8.1984313 43.04687,14.7092263 20.30748,9.80105 34.09785,19.474944 50.488,35.417146 16.70709,16.250472 28.1722,31.702102 37.12112,50.028444 l 4.59658,9.41328 h 11.74411 c 18.81095,0 33.54253,2.39409 52.01831,8.4537 44.76806,14.68286 80.02633,45.28086 100.67518,87.3684 11.88158,24.21763 16.79043,48.11361 15.77822,76.80739 -0.90139,25.55268 -5.46742,43.59511 -16.77819,66.29829 -25.42715,51.03776 -75.71719,86.63901 -131.15705,92.8485 -10.07859,1.12884 -291.21153,1.68991 -362.61647,0.72369 z M 539.46306,399.3896 c 25.15865,-8.63167 41.80879,-18.99798 58.22983,-36.25368 11.24181,-11.81322 21.34565,-28.48087 26.36175,-43.48729 6.38647,-19.10607 7.68731,-42.48837 3.56932,-64.15778 -5.31384,-27.96212 -24.10677,-56.64018 -48.61469,-74.18611 -9.83022,-7.03774 -25.86763,-15.00989 -38.4979,-19.13721 -9.05905,-2.96031 -11.21542,-3.3499 -22.08627,-3.9903 -6.62588,-0.39032 -20.36574,-0.72153 -30.53302,-0.73601 l -18.48594,-0.0263 -4.05156,-3.5442 c -4.2147,-3.68692 -5.27616,-5.62086 -12.38105,-22.55776 C 432.31715,82.071488 386.16923,49.029028 331.25246,44.159184 310.4245,42.312228 285.54872,46.126311 265.37255,54.260231 237.0975,65.659173 215.25208,83.600637 197.6045,109.91759 c -8.76629,13.07274 -16.03598,32.59958 -19.32738,51.91457 -1.45933,8.56384 -1.7368,12.89524 -1.54344,24.09411 0.44724,25.90422 0.43116,26.22062 -1.53964,30.29174 -2.24012,4.62747 -7.03625,9.06362 -11.09641,10.26356 -1.68774,0.4988 -10.65826,1.24961 -19.93449,1.66847 -18.46819,0.83392 -24.498,1.93504 -36.09464,6.59133 -20.857775,8.37484 -40.495098,27.59434 -49.141629,48.09606 -3.646911,8.64716 -4.95639,14.11045 -5.855634,24.43037 -1.829019,20.99019 2.7521,39.86623 13.710794,56.49394 4.699215,7.13014 17.483889,20.24201 23.880222,24.49137 7.513036,4.99123 22.240087,11.55731 29.156347,12.99939 3.2275,0.67295 10.56749,1.50997 16.31107,1.86005 5.74359,0.35007 96.09747,0.59767 200.78641,0.55021 l 190.34353,-0.0863 z"
     id="path267"
     transform="scale(0.74999998)" />
  <path
     style="fill:#ffffff;stroke-width:0.803137"
     d="m 94.368627,579.96586 c -1.325176,-0.34374 -3.154876,-1.02562 -4.066,-1.5153 -2.590456,-1.39223 -8.384896,-8.03237 -9.648579,-11.05679 -1.699327,-4.06707 -1.477481,-12.63832 0.423559,-16.36467 2.999526,-5.87955 50.368983,-54.34982 66.859693,-68.41343 8.96951,-7.64937 15.71277,-9.097 23.7406,-5.09656 10.55618,5.26036 15.56279,17.9935 10.76937,27.38938 -2.51591,4.93158 -13.99346,17.18714 -42.60453,45.4925 -27.91601,27.61773 -29.71031,29.00087 -38.65459,29.7972 -2.425563,0.21595 -5.494346,0.1114 -6.819523,-0.23233 z"
     id="path269"
     transform="scale(0.74999998)" />
  <path
     style="fill:#ffffff;stroke-width:0.803137"
     d="m 100.74906,679.95712 c -9.163832,-4.26717 -14.242028,-15.1358 -11.568933,-24.76046 1.230306,-4.4298 5.19017,-8.99196 27.473023,-31.65169 25.09346,-25.51787 43.73013,-43.11293 47.94005,-45.26067 12.09892,-6.17241 29.04991,5.77402 28.94524,20.39951 -0.0485,6.77484 -5.31847,12.91969 -43.85119,51.13096 -30.0063,29.75596 -32.88351,32.03391 -40.46058,32.03338 -2.95298,-2.1e-4 -5.76322,-0.62707 -8.47761,-1.89103 z"
     id="path271"
     transform="scale(0.74999998)" />
  <path
     style="fill:#ffffff;stroke-width:0.803137"
     d="m 225.8913,578.64654 c -11.5357,-5.83636 -16.32258,-19.4626 -10.12532,-28.82255 1.19774,-1.809 17.38132,-18.48712 35.96351,-37.0625 24.48011,-24.47113 34.79579,-34.25966 37.45271,-35.53882 12.73456,-6.131 28.86015,4.65612 28.86015,19.30584 0,6.17217 -1.53156,9.01991 -9.86733,18.34708 -9.47158,10.59808 -59.71372,60.06625 -63.94628,62.96121 -2.83006,1.93569 -4.50188,2.44109 -8.81134,2.66372 -4.4943,0.23218 -5.97066,-0.0552 -9.5261,-1.85398 z"
     id="path273"
     transform="scale(0.74999998)" />
  <path
     style="fill:#ffffff;stroke-width:0.803137"
     d="m 235.71494,680.01851 c -7.71563,-3.67627 -13.8467,-13.44365 -12.98828,-20.69161 0.65735,-5.55035 1.76394,-7.27004 11.60142,-18.02921 9.08999,-9.94166 49.7889,-50.58621 58.54757,-58.46939 6.90439,-6.21424 11.86798,-7.4149 20.30077,-4.91063 7.8416,2.32871 14.50358,11.24154 14.50358,19.40387 0,6.77434 -1.46457,9.48378 -10.42441,19.28514 -12.68082,13.8718 -58.39681,58.86374 -63.06265,62.06385 -5.42832,3.72307 -12.42241,4.2333 -18.478,1.34798 z"
     id="path275"
     transform="scale(0.74999998)" />
  <path
     style="fill:#ffffff;stroke-width:0.803137"
     d="m 369.60977,679.7883 c -7.14325,-3.55963 -13.03265,-12.20536 -13.0208,-19.11473 0.0128,-7.49424 3.5474,-11.95741 33.71414,-42.57175 36.10957,-36.64534 43.00154,-42.12865 51.80901,-41.21963 4.89001,0.50469 11.12907,3.45371 14.22328,6.72292 5.25481,5.552 7.04185,15.61269 3.97208,22.36195 -1.84181,4.04941 -19.00193,22.46836 -40.69067,43.67566 -22.42541,21.92761 -31.77294,30.14105 -35.61177,31.29119 -5.0562,1.51488 -9.81661,1.13603 -14.39527,-1.14561 z"
     id="path277"
     transform="scale(0.74999998)" />
  <path
     style="fill:#ffffff;stroke-width:0.803137"
     d="m 360.65165,579.32291 c -1.97177,-0.71952 -5.23873,-2.97076 -7.29473,-5.02676 -5.62025,-5.62024 -7.69912,-13.42064 -5.59519,-20.99438 1.08074,-3.89043 14.92551,-18.83158 43.48046,-46.92373 23.41318,-23.0337 29.56309,-28.40765 34.33962,-30.00679 12.74562,-4.26713 26.08426,6.32651 26.15276,20.77071 0.0219,4.61796 -0.28734,5.6838 -2.67972,9.23608 -3.29635,4.8945 -66.56373,68.1629 -71.46456,71.4657 -4.3091,2.90402 -11.34917,3.51879 -16.93864,1.47917 z"
     id="path279"
     transform="scale(0.74999998)" />
  <path
     style="fill:#ffffff;stroke-width:0.803137"
     d="m 494.27847,579.14998 c -10.83195,-4.91986 -16.25151,-17.79129 -11.70369,-27.79625 2.02674,-4.45875 13.40849,-16.79717 35.93495,-38.95541 25.60874,-25.19014 36.40218,-34.82315 40.33999,-36.00295 10.63719,-3.18698 22.97275,3.58426 26.17521,14.36811 1.56636,5.2745 1.5738,6.65427 0.0633,11.74061 -1.01256,3.40969 -3.01738,5.99516 -12.72401,16.4093 -12.16226,13.04874 -44.20816,44.77609 -54.45625,53.91492 -3.3378,2.97652 -7.37624,5.95817 -8.97432,6.62589 -3.93809,1.64544 -10.67035,1.50569 -14.65519,-0.30422 z"
     id="path281"
     transform="scale(0.74999998)" />
</svg>
