<?xml version="1.0" encoding="UTF-8" standalone="no"?>
<svg
   xmlns:dc="http://purl.org/dc/elements/1.1/"
   xmlns:cc="http://creativecommons.org/ns#"
   xmlns:rdf="http://www.w3.org/1999/02/22-rdf-syntax-ns#"
   xmlns:svg="http://www.w3.org/2000/svg"
   xmlns="http://www.w3.org/2000/svg"
   xmlns:sodipodi="http://sodipodi.sourceforge.net/DTD/sodipodi-0.dtd"
   xmlns:inkscape="http://www.inkscape.org/namespaces/inkscape"
   version="1.0"
   width="1024.000000pt"
   height="1024.000000pt"
   viewBox="0 0 1024.000000 1024.000000"
   preserveAspectRatio="xMidYMid meet"
   id="svg299"
   sodipodi:docname="snow2.svg"
   inkscape:version="1.0.2 (e86c870879, 2021-01-15)">
  <metadata
     id="metadata305">
    <rdf:RDF>
      <cc:Work
         rdf:about="">
        <dc:format>image/svg+xml</dc:format>
        <dc:type
           rdf:resource="http://purl.org/dc/dcmitype/StillImage" />
        <dc:title></dc:title>
      </cc:Work>
    </rdf:RDF>
  </metadata>
  <defs
     id="defs303" />
  <sodipodi:namedview
     pagecolor="#ffffff"
     bordercolor="#666666"
     borderopacity="1"
     objecttolerance="10"
     gridtolerance="10"
     guidetolerance="10"
     inkscape:pageopacity="0"
     inkscape:pageshadow="2"
     inkscape:window-width="1920"
     inkscape:window-height="1017"
     id="namedview301"
     showgrid="false"
     inkscape:zoom="0.62255859"
     inkscape:cx="682.66667"
     inkscape:cy="682.66667"
     inkscape:window-x="-8"
     inkscape:window-y="-8"
     inkscape:window-maximized="1"
     inkscape:current-layer="svg299" />
  <g
     transform="translate(0.000000,1024.000000) scale(0.100000,-0.100000)"
     fill="#000000"
     stroke="none"
     id="g297">
    <path
       d="M4908 9897 l-197 -132 -3 -647 -3 -646 -335 199 c-186 111 -342 198 -352 195 -9 -2 -86 -48 -172 -102 l-155 -99 -1 -230 0 -230 510 -305 510 -304 0 -423 c0 -233 -3 -423 -7 -423 -5 0 -183 94 -398 209 -312 167 -391 206 -393 192 -2 -9 -6 -206 -10 -438 l-7 -420 -374 216 -374 216 7 625 7 625 -196 119 c-149 90 -201 116 -214 110 -9 -5 -78 -56 -154 -113 l-137 -103 -2 -418 -3 -418 -575 324 c-316 178 -579 324 -585 324 -5 0 -115 -50 -243 -112 l-232 -112 2 -260 3 -260 563 -310 c309 -170 559 -313 555 -317 -5 -4 -165 -95 -358 -202 l-350 -195 -3 -239 -2 -239 203 -98 204 -97 524 306 c288 169 529 309 535 312 8 3 702 -394 727 -416 4 -4 -155 -108 -353 -232 -198 -123 -360 -226 -360 -229 0 -3 171 -104 380 -224 209 -121 377 -223 373 -227 -15 -13 -722 -419 -731 -419 -5 0 -242 138 -528 306 -285 168 -524 308 -531 311 -6 2 -109 -46 -227 -109 l-215 -113 0 -240 0 -240 376 -185 377 -186 -582 -324 -582 -325 0 -260 0 -260 67 -27 c38 -14 150 -60 249 -101 l181 -75 569 319 569 319 3 -413 3 -412 135 -110 c75 -60 138 -109 140 -108 3 1 79 56 170 123 l164 121 2 616 3 615 405 212 405 213 3 -449 c1 -246 4 -448 7 -448 2 0 184 110 404 245 220 135 402 245 405 245 3 0 6 -190 6 -423 l0 -423 -510 -305 -510 -304 0 -231 0 -230 155 -98 c86 -54 164 -100 173 -102 10 -2 162 82 352 195 l335 199 5 -649 5 -649 198 -130 c109 -71 202 -130 207 -130 5 0 98 58 207 130 l198 130 5 650 5 649 335 -199 c184 -110 342 -199 350 -198 8 2 86 41 172 88 l158 85 0 245 0 246 -510 304 -510 304 0 424 c0 387 1 424 16 418 9 -3 187 -103 395 -222 209 -118 386 -217 394 -220 13 -5 15 48 15 415 0 232 3 421 6 421 7 0 785 -429 802 -443 9 -7 12 -144 12 -622 l0 -612 151 -107 150 -107 155 107 154 106 0 405 c0 336 2 404 14 400 7 -3 258 -139 557 -303 299 -163 549 -297 554 -297 6 0 124 46 263 103 l252 104 0 256 0 256 -527 313 c-291 173 -534 320 -541 326 -11 10 51 49 320 202 l333 190 2 224 2 224 -179 120 c-99 66 -185 119 -192 117 -7 -2 -247 -133 -533 -291 -286 -159 -530 -294 -542 -300 -21 -10 -63 10 -395 185 -205 108 -379 200 -386 203 -8 5 136 93 358 221 203 118 370 218 370 221 0 3 -160 106 -355 229 -195 122 -355 225 -355 229 1 8 741 477 749 474 4 -1 247 -144 541 -319 294 -174 540 -317 546 -317 6 0 93 44 193 98 l181 99 0 232 0 232 -356 198 c-272 152 -352 201 -341 209 8 5 260 152 561 325 l546 315 0 242 0 242 -192 109 c-106 60 -206 116 -223 124 -30 15 -32 14 -615 -294 -322 -170 -591 -312 -597 -315 -10 -4 -13 85 -13 423 l-1 429 -153 85 c-85 47 -157 85 -160 85 -2 0 -70 -38 -150 -85 l-145 -85 -1 -670 0 -670 -408 -212 -407 -212 -3 459 c-1 253 -5 460 -8 460 -4 0 -181 -99 -395 -220 -213 -121 -395 -223 -403 -226 -14 -6 -16 37 -16 417 l0 424 603 309 c331 170 608 313 615 319 9 7 12 61 12 211 l0 201 -207 120 c-114 66 -212 121 -218 123 -7 2 -189 -89 -406 -202 l-394 -205 -3 647 -3 647 -193 128 c-106 71 -202 130 -212 132 -12 3 -91 -44 -216 -128z m763 -4477 c93 -168 169 -311 169 -318 0 -7 -72 -143 -161 -303 l-161 -289 -362 0 -363 0 -191 296 -192 295 183 315 182 314 364 -2 363 -3 169 -305z"
       id="path295" />
  </g>
  <path
     style="fill:#ffffff;stroke-width:1.60627"
     d="m 656.0218,1319.4573 -25.84171,-16.8055 -1.06101,-59.0122 c -0.58356,-32.4567 -1.06207,-71.5582 -1.06337,-86.8922 -0.002,-21.6568 -0.45056,-27.7025 -2.01022,-27.0846 -1.10431,0.4376 -16.82573,9.5601 -34.93647,20.2722 -18.11075,10.7122 -38.07364,22.1374 -44.36199,25.3896 l -11.43339,5.9129 -20.6921,-12.787 -20.69213,-12.7869 -0.43511,-30.5689 -0.4351,-30.5688 67.43685,-40.0818 67.43684,-40.0817 0.0602,-57.42436 c 0.0331,-31.58337 -0.4819,-57.41187 -1.14449,-57.39665 -0.66258,0.0145 -24.69647,14.3496 -53.40862,31.85422 l -52.20393,31.82658 -1.06398,-7.35856 c -0.58519,-4.04718 -1.12731,-30.72983 -1.2047,-59.29474 -0.0781,-28.80816 -0.76436,-51.69778 -1.54117,-51.40078 -0.77024,0.29448 -25.34624,13.08115 -54.61334,28.41479 l -53.2129,27.87938 -0.21781,37.97787 c -0.11983,20.88785 -0.66191,58.13172 -1.20471,82.76415 l -0.98689,44.7863 -20.61694,15.0474 c -11.33931,8.2761 -21.20223,15.0475 -21.9176,15.0475 -0.71537,0 -8.96622,-6.1666 -18.33522,-13.7035 l -17.03456,-13.7034 -0.20047,-26.855 c -0.1102,-14.7702 -0.65239,-39.6467 -1.20471,-55.281 l -1.00423,-28.42603 -75.57349,42.40733 -75.57349,42.4074 -32.44847,-13.1265 -32.44847,-13.1266 0.0569,-34.58654 0.0568,-34.58656 76.98171,-42.56628 c 42.33994,-23.41145 77.00989,-42.98063 77.04433,-43.48705 0.0344,-0.50644 -22.34492,-12.04194 -49.7319,-25.63444 L 165.44627,812.10369 V 780.4768 748.84993 l 28.52592,-14.49769 28.52591,-14.49768 69.76821,40.83821 c 38.37251,22.46102 70.79796,40.83821 72.05655,40.83821 1.2586,0 22.27299,-11.45365 46.69868,-25.45256 50.67378,-29.04228 51.58552,-29.5886 51.58552,-30.90996 0,-0.90386 -41.53778,-25.91499 -82.40147,-49.61636 -15.33738,-8.89583 -17.01239,-10.28899 -14.45647,-12.02389 1.58999,-1.07924 21.32288,-13.65085 43.85088,-27.93689 22.528,-14.28606 42.69796,-27.31722 44.82213,-28.95814 l 3.86212,-2.9835 -19.12173,-11.22941 C 408.26056,594.2728 375.6711,575.77289 367.03373,571.47524 l -8.03138,-3.99614 -69.70911,40.72789 c -38.34003,22.40035 -70.43129,40.72791 -71.31393,40.72791 -0.88264,0 -13.06365,-5.53959 -27.06892,-12.3102 l -25.46412,-12.31021 v -31.6905 c 0,-27.76334 0.32327,-31.81453 2.60867,-32.69152 1.43477,-0.55057 22.81639,-12.28964 47.51473,-26.08682 36.86552,-20.59411 44.52334,-25.45458 42.76859,-27.14554 -2.26807,-2.18559 -52.56511,-30.62458 -111.76571,-63.19466 l -35.73961,-19.66266 v -34.17377 -34.17376 l 29.29311,-14.03609 c 16.1112,-7.71985 30.42595,-14.12143 31.81054,-14.22573 2.29175,-0.17264 38.4485,19.62456 123.61792,67.68555 l 31.32235,17.67517 0.99967,-29.20532 c 0.54979,-16.06292 1.09191,-41.2395 1.2047,-55.94798 l 0.20504,-26.74266 18.30252,-13.81577 c 10.06638,-7.59866 19.32162,-13.81576 20.56721,-13.81576 2.08215,0 26.8194,13.71392 45.04994,24.97491 l 7.62163,4.70788 -0.96298,83.54292 -0.96298,83.54291 49.74819,28.51138 c 27.3615,15.68125 50.09647,28.51137 50.52215,28.51137 0.42568,0 1.2966,-25.47094 1.93537,-56.60208 0.63878,-31.13114 1.42848,-56.86914 1.75487,-57.19555 0.76565,-0.76563 10.17774,3.97121 61.10437,30.75206 23.0169,12.10393 42.35243,22.00714 42.96784,22.00714 0.61541,0 1.08665,-25.84094 1.04718,-57.42432 l -0.0718,-57.42431 -67.42548,-40.03843 -67.42546,-40.03845 0.43526,-30.5166 0.43531,-30.51661 20.07843,-12.55949 c 11.04314,-6.90772 20.894,-12.56408 21.89079,-12.56967 2.43904,-0.0137 22.38047,11.09551 59.45595,33.12235 16.912,10.04755 31.18776,18.26827 31.72392,18.26827 0.53616,0 0.97997,-34.15341 0.98625,-75.89647 0.006,-41.74306 0.45656,-80.607773 1.0006,-86.366032 l 0.98919,-10.469566 13.05429,-8.776358 c 28.86769,-19.40764 37.18484,-24.25031 40.58336,-23.629696 1.88921,0.344995 14.26407,7.754386 27.49971,16.465312 l 24.06477,15.838047 1.01167,11.967969 c 0.55641,6.582383 1.01166,45.530444 1.01166,86.551244 0,48.63121 0.55468,74.39696 1.5941,74.04784 0.87675,-0.29448 24.97472,-12.45411 53.55107,-27.02138 l 51.95696,-26.48596 27.96737,16.08149 27.96736,16.08151 0.45045,19.57099 c 0.24775,10.76403 -0.11501,22.94372 -0.80609,27.06595 l -1.25654,7.49498 -66.65744,34.24453 c -36.66159,18.83449 -72.98214,37.59145 -80.71234,41.68212 l -14.0549,7.43758 v 57.07843 c 0,53.69148 0.1668,57.01583 2.81098,56.02339 1.54604,-0.58027 25.42284,-13.76528 53.05955,-29.30001 27.63671,-15.53474 50.76706,-27.72675 51.40079,-27.09337 0.63372,0.63339 1.40618,27.83612 1.71659,60.45052 0.3104,32.6144 0.89436,59.2989 1.29766,59.2989 0.40332,0 25.26747,-12.75566 55.25368,-28.34594 l 54.52036,-28.34594 v -89.38049 -89.38048 l 17.93113,-10.37397 c 9.86211,-5.70568 18.55694,-10.62189 19.32183,-10.9249 0.76487,-0.303 10.40503,4.36488 21.42263,10.37308 l 20.0319,10.924 0.011,45.84655 c 0.011,47.71183 1.0422,67.53123 3.5107,67.53123 0.7982,0 27.9803,-14.00806 60.4046,-31.12904 72.3614,-38.2088 94.2039,-49.18468 97.8801,-49.18468 1.5615,0 14.7651,6.69291 29.3413,14.87312 l 26.5023,14.87312 0.434,32.27205 0.4341,32.27204 -73.118,42.24183 c -40.2149,23.23301 -73.118,43.09666 -73.118,44.14145 0,2.13183 15.3156,11.37531 60.1683,36.31374 l 30.5862,17.00617 v 31.11996 31.11997 l -23.291,12.51524 c -12.8979,6.93059 -24.3631,12.10971 -25.6937,11.60645 -1.3215,-0.49984 -33.8486,-19.41555 -72.2824,-42.03492 -38.4337,-22.61936 -70.6522,-41.12633 -71.5966,-41.12657 -0.9444,-2.5e-4 -17.20789,9.74994 -36.14116,21.6671 -56.06726,35.29039 -64.15069,40.63803 -63.66436,42.11753 0.25458,0.77444 20.47931,14.17143 44.94387,29.77107 24.46456,15.59964 45.21833,29.10031 46.11951,30.00149 1.11383,1.11383 -11.60838,9.44395 -39.72998,26.01397 -22.75265,13.40651 -44.51565,26.48138 -48.36218,29.05526 l -6.99371,4.67978 10.20626,5.60937 c 23.04333,12.66461 81.35339,42.82068 87.71945,45.36564 l 6.8371,2.73329 67.0515,-36.98264 c 36.8784,-20.34047 69.707,-38.23761 72.9526,-39.77144 l 5.9011,-2.78877 23.4134,15.46642 23.4135,15.46643 v 29.41126 29.41127 l -40.0286,22.86512 c -22.0157,12.57582 -41.7126,24.29271 -43.7709,26.03751 l -3.7425,3.17237 3.3808,2.81098 c 1.8594,1.54604 33.8182,20.88157 71.0196,42.96785 l 67.6388,40.15686 0.058,33.96148 c 0.044,25.70152 -0.4303,34.16282 -1.9498,34.78952 -34.8402,14.3673 -62.6445,25.2161 -64.6265,25.2161 -2.3383,0 -22.1397,-10.472 -115.3446,-61.00007 -18.3693,-9.95829 -33.91,-17.59545 -34.5349,-16.97148 -0.625,0.62399 -1.3767,24.91053 -1.6706,53.97005 l -0.5342,52.8356 -7.4971,5.3933 c -4.1234,2.9663 -13.0656,9.1953 -19.8716,13.8421 l -12.37434,8.4487 -19.34953,-13.8986 -19.34952,-13.8987 -0.006,-62.1471 c -0.003,-34.18096 -0.47433,-71.31969 -1.04612,-82.53054 l -1.03961,-20.38339 -42.72484,-23.62017 c -23.49877,-12.99109 -47.13136,-26.0454 -52.51697,-29.00957 -5.3856,-2.96416 -10.542,-5.38939 -11.45864,-5.38939 -1.10569,0 -1.87608,18.07737 -2.2889,53.71021 -0.34227,29.54059 -1.12555,54.21345 -1.74064,54.82854 -0.61509,0.61511 -23.73022,-11.59187 -51.36693,-27.12662 -27.63671,-15.53473 -51.51351,-28.71974 -53.05955,-29.30001 -2.64539,-0.9929 -2.80626,2.33784 -2.73089,56.54112 l 0.0801,57.59622 67.38344,39.9468 67.38344,39.9468 v 32.3967 32.3967 l -21.60995,11.1827 -21.60993,11.1828 -8.50772,-4.7015 c -4.67924,-2.5858 -24.28578,-14.0147 -43.5701,-25.3975 -19.28432,-11.3829 -36.08997,-21.0904 -37.34588,-21.5724 -1.91969,-0.7366 -2.28387,3.5655 -2.28586,27.0039 -10e-4,15.334 -0.48013,54.4533 -1.06407,86.9318 l -1.06172,59.0517 -26.12618,16.8448 c -14.36941,9.2646 -26.35929,16.8092 -26.64416,16.7659 -0.28487,-0.043 -12.14673,-7.6413 -26.35969,-16.8843 z m 88.33522,-568.93051 c 20.07935,-35.80049 34.68612,-63.36382 34.68612,-65.45359 0,-2.10327 -17.94633,-35.94028 -37.28258,-70.29468 l -7.92374,-14.07795 -49.19179,0.42462 -49.19178,0.42461 -23.82343,40.96 c -13.10288,22.528 -23.5373,42.11834 -23.18759,43.53407 0.34972,1.41574 11.70714,19.66704 25.23871,40.55844 l 24.60285,37.98436 49.09654,-0.005 49.09653,-0.005 7.88016,-14.04992 z"
     id="path307"
     transform="scale(0.74999998)" />
</svg>
