<?xml version="1.0" encoding="UTF-8" standalone="no"?>
<svg
   xmlns:dc="http://purl.org/dc/elements/1.1/"
   xmlns:cc="http://creativecommons.org/ns#"
   xmlns:rdf="http://www.w3.org/1999/02/22-rdf-syntax-ns#"
   xmlns:svg="http://www.w3.org/2000/svg"
   xmlns="http://www.w3.org/2000/svg"
   xmlns:sodipodi="http://sodipodi.sourceforge.net/DTD/sodipodi-0.dtd"
   xmlns:inkscape="http://www.inkscape.org/namespaces/inkscape"
   version="1.0"
   width="512.000000pt"
   height="512.000000pt"
   viewBox="0 0 512.000000 512.000000"
   preserveAspectRatio="xMidYMid meet"
   id="svg337"
   sodipodi:docname="thunderstorm2.svg"
   inkscape:version="1.0.2 (e86c870879, 2021-01-15)">
  <metadata
     id="metadata343">
    <rdf:RDF>
      <cc:Work
         rdf:about="">
        <dc:format>image/svg+xml</dc:format>
        <dc:type
           rdf:resource="http://purl.org/dc/dcmitype/StillImage" />
        <dc:title></dc:title>
      </cc:Work>
    </rdf:RDF>
  </metadata>
  <defs
     id="defs341" />
  <sodipodi:namedview
     pagecolor="#ffffff"
     bordercolor="#666666"
     borderopacity="1"
     objecttolerance="10"
     gridtolerance="10"
     guidetolerance="10"
     inkscape:pageopacity="0"
     inkscape:pageshadow="2"
     inkscape:window-width="1920"
     inkscape:window-height="1017"
     id="namedview339"
     showgrid="false"
     inkscape:zoom="1.2451172"
     inkscape:cx="341.33333"
     inkscape:cy="341.33333"
     inkscape:window-x="-8"
     inkscape:window-y="-8"
     inkscape:window-maximized="1"
     inkscape:current-layer="svg337" />
  <g
     transform="translate(0.000000,512.000000) scale(0.100000,-0.100000)"
     fill="#000000"
     stroke="none"
     id="g335">
    <path
       d="M2127 4695 c-387 -65 -712 -342 -840 -716 -33 -96 -57 -231 -57 -324 l0 -72 -82 -6 c-321 -24 -606 -259 -704 -582 -25 -80 -28 -106 -28 -230 0 -124 3 -150 28 -230 83 -271 283 -471 556 -557 72 -22 88 -23 382 -23 303 0 308 0 329 22 34 34 32 104 -4 140 l-27 28 -283 6 c-229 5 -292 9 -337 23 -169 54 -306 169 -377 316 -52 108 -64 160 -64 275 0 115 12 167 64 275 81 168 243 289 436 327 73 15 98 15 198 4 64 -7 122 -15 131 -18 13 -6 14 2 8 58 -4 35 -11 100 -16 144 -46 431 256 841 684 930 98 20 261 21 352 1 177 -36 329 -121 456 -254 127 -133 195 -273 234 -479 10 -52 23 -97 29 -99 6 -3 47 12 91 32 128 59 210 83 323 96 91 10 120 9 204 -5 374 -64 650 -356 685 -724 38 -399 -201 -754 -583 -869 -83 -25 -108 -27 -333 -33 l-244 -6 -30 -34 c-26 -29 -30 -39 -25 -75 4 -27 15 -49 32 -63 25 -22 32 -23 254 -23 263 0 346 11 486 67 310 123 537 378 622 698 23 88 27 119 27 255 0 137 -3 167 -27 255 -78 291 -274 529 -542 660 -168 82 -244 99 -450 99 -143 0 -182 -3 -245 -21 -41 -12 -81 -23 -88 -25 -8 -2 -23 24 -41 68 -67 170 -148 291 -275 412 -241 228 -581 332 -909 277z"
       id="path327" />
    <path
       d="M2206 2003 l-356 -458 251 -3 c194 -2 250 -5 246 -15 -2 -6 -116 -187 -252 -400 -135 -214 -245 -390 -243 -391 2 -2 252 222 557 498 l554 501 -254 3 -254 2 360 360 360 360 -307 0 -306 0 -356 -457z"
       id="path329" />
    <path
       d="M1185 1624 c-37 -20 -431 -409 -451 -446 -38 -72 7 -148 88 -148 43 0 44 1 275 233 217 217 233 236 233 269 0 39 -44 98 -73 98 -9 0 -21 2 -29 5 -7 2 -26 -3 -43 -11z"
       id="path331" />
    <path
       d="M3635 1519 c-31 -17 -425 -411 -441 -441 -17 -32 -18 -68 -3 -101 19 -42 86 -64 128 -42 45 24 459 447 466 478 9 35 -10 81 -41 102 -27 17 -80 19 -109 4z"
       id="path333" />
  </g>
  <path
     style="fill:#ffffff;stroke-width:0.803137"
     d="m 249.77569,581.04109 c 0,-0.69244 0.33169,-1.22457 36.02692,-57.79717 14.77176,-23.41145 27.01659,-43.16041 27.21073,-43.88658 0.50869,-1.90275 -2.91837,-2.16598 -36.16376,-2.77769 -15.80928,-0.2909 -28.6394,-0.78713 -28.51137,-1.10273 0.12802,-0.31561 21.19465,-27.53561 46.81473,-60.48888 l 46.58196,-59.91504 40.15433,-0.0432 40.15434,-0.0432 -47.58335,47.58839 c -26.17085,26.17361 -47.58336,47.85436 -47.58336,48.17942 0,0.32507 15.0696,0.68535 33.48799,0.80063 l 33.48799,0.2096 -45.33426,40.98366 c -39.6961,35.88657 -71.76265,64.76751 -92.51858,83.32741 -3.42337,3.06118 -6.22431,5.29557 -6.22431,4.96531 z"
     id="path345"
     transform="scale(0.74999998)" />
  <path
     style="fill:#ffffff;stroke-width:0.803137"
     d="m 106.53291,544.36498 c -4.36188,-0.91693 -7.35277,-3.30415 -8.860385,-7.07205 -1.651533,-4.12759 -1.611875,-6.04788 0.20762,-10.05325 2.769805,-6.09734 55.853175,-58.69307 61.704935,-61.13809 5.75743,-2.40561 12.18605,0.53163 15.57239,7.11504 2.17751,4.23329 1.924,7.07463 -0.99529,11.15542 -3.28153,4.58714 -51.25958,52.89373 -56.50257,56.88949 -4.52094,3.44546 -6.66063,4.04226 -11.1267,3.10344 z"
     id="path347"
     transform="scale(0.74999998)" />
  <path
     style="fill:#ffffff;stroke-width:0.803137"
     d="m 449.35529,421.76321 c -2.20862,-0.31828 -4.79656,-1.01217 -5.75096,-1.54197 -2.52957,-1.4042 -5.02833,-5.87901 -5.53637,-9.91464 -0.47729,-3.79135 0.13592,-5.08527 5.03848,-10.63161 l 2.58566,-2.92519 10.26454,-0.0157 c 19.06784,-0.0292 51.3074,-1.55659 57.37935,-2.71834 12.76515,-2.44238 27.41529,-8.60319 39.62401,-16.66303 8.09306,-5.34281 23.65077,-20.83116 28.92004,-28.79112 8.04892,-12.159 13.50888,-25.18481 16.57979,-39.5544 1.42969,-6.68989 1.75931,-10.86555 1.75931,-22.28717 0,-15.6813 -1.38895,-24.39587 -5.97642,-37.4972 -12.17295,-34.76475 -43.18387,-61.44659 -81.03801,-69.72521 -8.22603,-1.79901 -25.26221,-2.42457 -34.15832,-1.25427 -13.27556,1.74641 -21.7121,4.26663 -39.41369,11.77385 -6.6726,2.82985 -12.49792,5.14518 -12.94514,5.14518 -0.93757,0 -2.47447,-5.28197 -5.46442,-18.7799 -5.70215,-25.742 -14.94329,-43.08508 -32.12706,-60.2936 -17.16347,-17.1882 -37.89192,-28.18167 -60.90553,-32.301643 -10.02014,-1.793838 -31.97587,-1.761319 -42.27369,0.06261 -22.86312,4.049474 -43.49148,14.989047 -60.6642,32.171273 -13.73642,13.74404 -22.54263,28.02059 -28.52893,46.2509 -5.78414,17.61469 -6.73897,31.57096 -3.91779,57.26467 0.9142,8.32602 1.54732,15.24655 1.40694,15.37895 -0.14038,0.13239 -5.4957,-0.43788 -11.90072,-1.26728 -6.40502,-0.82939 -15.25961,-1.50774 -19.67687,-1.50744 -24.13095,0.002 -49.2154,12.56993 -64.04939,32.09127 -5.105069,6.7182 -12.148257,21.1004 -14.355776,29.31451 -1.456332,5.41896 -1.726728,8.626 -1.726728,20.48 0,16.36662 1.106559,21.80958 6.935544,34.11469 4.755081,10.03807 9.248963,16.50705 16.51414,23.77223 6.88374,6.88374 13.03106,11.2672 22.2373,15.85673 14.32771,7.14269 18.55149,7.68377 67.60375,8.66012 l 28.34001,0.56409 2.26378,2.8894 c 3.49739,4.46394 4.28781,6.42517 4.28781,10.6391 0,4.30906 -1.44275,7.11913 -4.77782,9.30578 -1.96492,1.28831 -5.3297,1.43938 -37.13391,1.66728 -20.63012,0.14783 -38.13243,-0.0921 -42.67642,-0.58507 -12.87875,-1.39713 -28.53133,-7.57074 -42.3328,-16.69669 C 96.202006,399.2136 84.628976,388.5303 78.69183,381.069 69.66131,369.72019 62.159765,354.38226 58.215911,339.20319 c -1.829328,-7.0407 -1.995833,-9.13708 -1.990676,-25.06367 0.0047,-14.53039 0.265977,-18.46627 1.59338,-24.00308 4.525446,-18.87636 14.410201,-36.90448 27.927287,-50.93466 19.638138,-20.38357 42.916368,-31.35012 70.591578,-33.25623 l 8.08717,-0.55699 0.4592,-12.94369 c 0.73491,-20.7148 5.33808,-38.99207 14.36531,-57.03861 8.15452,-16.30188 16.88725,-28.03385 30.64286,-41.167118 19.90384,-19.003336 43.77127,-31.185792 72.41073,-36.960014 11.29937,-2.278153 38.62504,-2.065059 50.86572,0.396666 13.30935,2.676645 24.77183,6.651509 37.47937,12.996788 31.79811,15.877806 55.2847,41.518068 69.52468,75.899968 2.70158,6.52284 5.39827,11.64549 6.13049,11.64549 0.22175,0 4.19101,-1.10341 8.82058,-2.45204 10.52631,-3.06638 18.17861,-3.95941 33.987,-3.96629 23.79682,-0.0104 36.09228,2.02074 51.40078,8.49097 19.47602,8.23167 32.92083,17.17388 46.98353,31.24903 17.9994,18.01532 28.75555,36.76662 36.26383,63.21907 1.99167,7.01685 2.14008,8.74465 2.46928,28.74867 0.31684,19.25241 0.19088,22.06078 -1.32009,29.43318 -6.03437,29.44305 -22.59979,57.36212 -45.76053,77.12394 -17.59343,15.01153 -43.30583,27.14871 -64.33641,30.36908 -9.21065,1.41041 -58.01551,2.40175 -65.45569,1.32956 z"
     id="path349"
     transform="scale(0.74999998)" />
  <path
     style="fill:#ffffff;stroke-width:0.803137"
     d="m 434.49725,558.42097 c -7.15071,-2.58647 -9.63922,-5.7847 -9.63464,-12.38243 0.002,-2.99161 0.52984,-5.18794 1.7141,-7.13344 2.24301,-3.6848 54.06947,-55.52111 57.71505,-57.72602 3.96474,-2.39795 10.86661,-2.34976 14.45688,0.10092 3.31452,2.26246 5.62156,6.51073 5.62156,10.35178 0,2.55987 -0.91589,3.98842 -6.95941,10.85488 -3.82767,4.34889 -17.29025,18.27834 -29.91686,30.95435 -24.84193,24.93913 -27.51496,26.96274 -32.99668,24.97996 z"
     id="path351"
     transform="scale(0.74999998)" />
</svg>
